<?xml version="1.0" encoding="UTF-8" standalone="no"?><svg xmlns="http://www.w3.org/2000/svg" xmlns:xlink="http://www.w3.org/1999/xlink" contentScriptType="application/ecmascript" contentStyleType="text/css" height="471px" preserveAspectRatio="none" style="width:1175px;height:471px;" version="1.1" viewBox="0 0 1175 471" width="1175px" zoomAndPan="magnify"><defs><filter height="300%" id="f1auwzqe161shi" width="300%" x="-1" y="-1"><feGaussianBlur result="blurOut" stdDeviation="2.0"/><feColorMatrix in="blurOut" result="blurOut2" type="matrix" values="0 0 0 0 0 0 0 0 0 0 0 0 0 0 0 0 0 0 .4 0"/><feOffset dx="4.0" dy="4.0" in="blurOut2" result="blurOut3"/><feBlend in="SourceGraphic" in2="blurOut3" mode="normal"/></filter></defs><g><!--MD5=[625b8b7797c741b0433c83e9110e97ca]
cluster demo/proj/components/projekthandbuch/tailoring/App.tsx--><polygon fill="#FFFFFF" filter="url(#f1auwzqe161shi)" points="164,6,700,6,707,28.2969,710,28.2969,710,143,164,143,164,6" style="stroke:#000000;stroke-width:1.5;"/><line style="stroke:#000000;stroke-width:1.5;" x1="164" x2="707" y1="28.2969" y2="28.2969"/><text fill="#000000" font-family="sans-serif" font-size="14" font-weight="bold" lengthAdjust="spacing" textLength="530" x="168" y="20.9951">demo/proj/components/projekthandbuch/tailoring/App.tsx</text><!--MD5=[d570b5b8124e103f0cf984dc676fdfb2]
cluster proj/components/projekthandbuch/tailoricontroller.ts--><polygon fill="#FFFFFF" filter="url(#f1auwzqe161shi)" points="531,167,973,167,980,189.2969,1001,189.2969,1001,464,531,464,531,167" style="stroke:#000000;stroke-width:1.5;"/><line style="stroke:#000000;stroke-width:1.5;" x1="531" x2="980" y1="189.2969" y2="189.2969"/><text fill="#000000" font-family="sans-serif" font-size="14" font-weight="bold" lengthAdjust="spacing" textLength="436" x="535" y="181.9951">proj/components/projekthandbuch/tailoricontroller.ts</text><!--MD5=[66c7d7bc203ec41417867dea3b7f9715]
cluster JSX--><polygon fill="#FFFFFF" filter="url(#f1auwzqe161shi)" points="1025,199,1057,199,1064,221.2969,1137,221.2969,1137,298,1025,298,1025,199" style="stroke:#000000;stroke-width:1.5;"/><line style="stroke:#000000;stroke-width:1.5;" x1="1025" x2="1064" y1="221.2969" y2="221.2969"/><text fill="#000000" font-family="sans-serif" font-size="14" font-weight="bold" lengthAdjust="spacing" textLength="26" x="1029" y="213.9951">JSX</text><!--MD5=[3d0f542b8971971c8aef1a27a8e9b38c]
class TailoringComponent--><rect codeLine="2" fill="#FEFECE" filter="url(#f1auwzqe161shi)" height="86.4141" id="TailoringComponent" style="stroke:#A80036;stroke-width:1.5;" width="383" x="245.5" y="41"/><ellipse cx="372.75" cy="57" fill="#ADD1B2" rx="11" ry="11" style="stroke:#A80036;stroke-width:1.0;"/><path d="M375.0938,52.6719 C374.1563,52.2344 373.5625,52.0938 372.6875,52.0938 C370.0625,52.0938 368.0625,54.1719 368.0625,56.8906 L368.0625,58.0156 C368.0625,60.5938 370.1719,62.4844 373.0625,62.4844 C374.2813,62.4844 375.4375,62.1875 376.1875,61.6406 C376.7656,61.2344 377.0938,60.7813 377.0938,60.3906 C377.0938,59.9375 376.7031,59.5469 376.2344,59.5469 C376.0156,59.5469 375.8125,59.625 375.625,59.8125 C375.1719,60.2969 375.1719,60.2969 374.9844,60.3906 C374.5625,60.6563 373.875,60.7813 373.1094,60.7813 C371.0625,60.7813 369.7656,59.6875 369.7656,57.9844 L369.7656,56.8906 C369.7656,55.1094 371.0156,53.7969 372.75,53.7969 C373.3281,53.7969 373.9375,53.9531 374.4063,54.2031 C374.8906,54.4844 375.0625,54.7031 375.1563,55.1094 C375.2188,55.5156 375.25,55.6406 375.3906,55.7656 C375.5313,55.9063 375.7656,56.0156 375.9844,56.0156 C376.25,56.0156 376.5156,55.875 376.6875,55.6563 C376.7969,55.5 376.8281,55.3125 376.8281,54.8906 L376.8281,53.4688 C376.8281,53.0313 376.8125,52.9063 376.7188,52.75 C376.5625,52.4844 376.2813,52.3438 375.9844,52.3438 C375.6875,52.3438 375.4844,52.4375 375.2656,52.75 L375.0938,52.6719 Z " fill="#000000"/><text fill="#000000" font-family="sans-serif" font-size="12" lengthAdjust="spacing" textLength="120" x="393.25" y="61.1543">TailoringComponent</text><line style="stroke:#A80036;stroke-width:1.5;" x1="246.5" x2="627.5" y1="73" y2="73"/><ellipse cx="256.5" cy="84" rx="3" ry="3" style="stroke:#038048;stroke-width:1.0;fill:none;"/><text fill="#000000" font-family="sans-serif" font-size="11" lengthAdjust="spacing" textLength="237" x="265.5" y="87.2104">ctrl: TailoringController: TailoringController</text><line style="stroke:#A80036;stroke-width:1.5;" x1="246.5" x2="627.5" y1="93.8047" y2="93.8047"/><rect fill="#F24D5C" height="6" style="stroke:#C82930;stroke-width:1.0;" width="6" x="253.5" y="101.8047"/><text fill="#000000" font-family="sans-serif" font-size="11" lengthAdjust="spacing" textLength="357" x="265.5" y="108.0151">onChange(checkedValues: Array&lt;CheckboxValueType&gt;): void</text><ellipse cx="256.5" cy="117.6094" fill="#84BE84" rx="3" ry="3" style="stroke:#038048;stroke-width:1.0;"/><text fill="#000000" font-family="sans-serif" font-size="11" lengthAdjust="spacing" textLength="123" x="265.5" y="120.8198">render(): JSX.Element</text><!--MD5=[9d69a2df9ca291435462a8fa9571e240]
class OrgranisationRole--><rect codeLine="10" fill="#FEFECE" filter="url(#f1auwzqe161shi)" height="73.6094" id="OrgranisationRole" style="stroke:#A80036;stroke-width:1.5;" width="138" x="547" y="374"/><ellipse cx="562" cy="390" fill="#B4A7E5" rx="11" ry="11" style="stroke:#A80036;stroke-width:1.0;"/><path d="M562.9531,386.7813 L564.6719,386.7813 C565.0625,386.7813 565.25,386.75 565.375,386.6719 C565.6406,386.5156 565.7813,386.2344 565.7813,385.9375 C565.7813,385.6719 565.6719,385.4063 565.4375,385.2344 C565.2656,385.125 565.125,385.0938 564.6719,385.0938 L559.5313,385.0938 C559.0938,385.0938 558.9688,385.1094 558.8125,385.2031 C558.5625,385.3594 558.4063,385.6563 558.4063,385.9375 C558.4063,386.2188 558.5469,386.4688 558.7656,386.6406 C558.9219,386.75 559.1094,386.7813 559.5313,386.7813 L561.25,386.7813 L561.25,393.2969 L559.5313,393.2969 C559.0938,393.2969 558.9688,393.3125 558.8125,393.4219 C558.5625,393.5781 558.4063,393.8594 558.4063,394.1563 C558.4063,394.4063 558.5469,394.6719 558.7656,394.8281 C558.9219,394.9531 559.125,395 559.5313,395 L564.6719,395 C565.4219,395 565.7813,394.7188 565.7813,394.1563 C565.7813,393.875 565.6719,393.625 565.4375,393.4531 C565.2656,393.3281 565.125,393.2969 564.6719,393.2969 L562.9531,393.2969 L562.9531,386.7813 Z " fill="#000000"/><text fill="#000000" font-family="sans-serif" font-size="12" font-style="italic" lengthAdjust="spacing" textLength="106" x="576" y="394.1543">OrgranisationRole</text><line style="stroke:#A80036;stroke-width:1.5;" x1="548" x2="684" y1="406" y2="406"/><text fill="#000000" font-family="sans-serif" font-size="11" lengthAdjust="spacing" textLength="110" x="553" y="420.2104">dependency: string</text><text fill="#000000" font-family="sans-serif" font-size="11" lengthAdjust="spacing" textLength="66" x="553" y="433.0151">label: string</text><line style="stroke:#A80036;stroke-width:1.5;" x1="548" x2="684" y1="439.6094" y2="439.6094"/><!--MD5=[72c2b38f0075f7c9d19a6864453fbfd6]
class ProjectRole--><rect codeLine="14" fill="#FEFECE" filter="url(#f1auwzqe161shi)" height="73.6094" id="ProjectRole" style="stroke:#A80036;stroke-width:1.5;" width="122" x="720" y="374"/><ellipse cx="745.8" cy="390" fill="#B4A7E5" rx="11" ry="11" style="stroke:#A80036;stroke-width:1.0;"/><path d="M746.7531,386.7813 L748.4719,386.7813 C748.8625,386.7813 749.05,386.75 749.175,386.6719 C749.4406,386.5156 749.5813,386.2344 749.5813,385.9375 C749.5813,385.6719 749.4719,385.4063 749.2375,385.2344 C749.0656,385.125 748.925,385.0938 748.4719,385.0938 L743.3313,385.0938 C742.8938,385.0938 742.7688,385.1094 742.6125,385.2031 C742.3625,385.3594 742.2063,385.6563 742.2063,385.9375 C742.2063,386.2188 742.3469,386.4688 742.5656,386.6406 C742.7219,386.75 742.9094,386.7813 743.3313,386.7813 L745.05,386.7813 L745.05,393.2969 L743.3313,393.2969 C742.8938,393.2969 742.7688,393.3125 742.6125,393.4219 C742.3625,393.5781 742.2063,393.8594 742.2063,394.1563 C742.2063,394.4063 742.3469,394.6719 742.5656,394.8281 C742.7219,394.9531 742.925,395 743.3313,395 L748.4719,395 C749.2219,395 749.5813,394.7188 749.5813,394.1563 C749.5813,393.875 749.4719,393.625 749.2375,393.4531 C749.0656,393.3281 748.925,393.2969 748.4719,393.2969 L746.7531,393.2969 L746.7531,386.7813 Z " fill="#000000"/><text fill="#000000" font-family="sans-serif" font-size="12" font-style="italic" lengthAdjust="spacing" textLength="66" x="762.2" y="394.1543">ProjectRole</text><line style="stroke:#A80036;stroke-width:1.5;" x1="721" x2="841" y1="406" y2="406"/><text fill="#000000" font-family="sans-serif" font-size="11" lengthAdjust="spacing" textLength="110" x="726" y="420.2104">dependency: string</text><text fill="#000000" font-family="sans-serif" font-size="11" lengthAdjust="spacing" textLength="66" x="726" y="433.0151">label: string</text><line style="stroke:#A80036;stroke-width:1.5;" x1="721" x2="841" y1="439.6094" y2="439.6094"/><!--MD5=[e5dff09cd151bcbdc7dc2bcca343f847]
class TailoringRole--><rect codeLine="18" fill="#FEFECE" filter="url(#f1auwzqe161shi)" height="73.6094" id="TailoringRole" style="stroke:#A80036;stroke-width:1.5;" width="108" x="877" y="374"/><ellipse cx="892" cy="390" fill="#B4A7E5" rx="11" ry="11" style="stroke:#A80036;stroke-width:1.0;"/><path d="M892.9531,386.7813 L894.6719,386.7813 C895.0625,386.7813 895.25,386.75 895.375,386.6719 C895.6406,386.5156 895.7813,386.2344 895.7813,385.9375 C895.7813,385.6719 895.6719,385.4063 895.4375,385.2344 C895.2656,385.125 895.125,385.0938 894.6719,385.0938 L889.5313,385.0938 C889.0938,385.0938 888.9688,385.1094 888.8125,385.2031 C888.5625,385.3594 888.4063,385.6563 888.4063,385.9375 C888.4063,386.2188 888.5469,386.4688 888.7656,386.6406 C888.9219,386.75 889.1094,386.7813 889.5313,386.7813 L891.25,386.7813 L891.25,393.2969 L889.5313,393.2969 C889.0938,393.2969 888.9688,393.3125 888.8125,393.4219 C888.5625,393.5781 888.4063,393.8594 888.4063,394.1563 C888.4063,394.4063 888.5469,394.6719 888.7656,394.8281 C888.9219,394.9531 889.125,395 889.5313,395 L894.6719,395 C895.4219,395 895.7813,394.7188 895.7813,394.1563 C895.7813,393.875 895.6719,393.625 895.4375,393.4531 C895.2656,393.3281 895.125,393.2969 894.6719,393.2969 L892.9531,393.2969 L892.9531,386.7813 Z " fill="#000000"/><text fill="#000000" font-family="sans-serif" font-size="12" font-style="italic" lengthAdjust="spacing" textLength="76" x="906" y="394.1543">TailoringRole</text><line style="stroke:#A80036;stroke-width:1.5;" x1="878" x2="984" y1="406" y2="406"/><text fill="#000000" font-family="sans-serif" font-size="11" lengthAdjust="spacing" textLength="59" x="883" y="420.2104">key: string</text><text fill="#000000" font-family="sans-serif" font-size="11" lengthAdjust="spacing" textLength="66" x="883" y="433.0151">label: string</text><line style="stroke:#A80036;stroke-width:1.5;" x1="878" x2="984" y1="439.6094" y2="439.6094"/><!--MD5=[05c11163ac03eab42f7959638349c061]
class TailoringController--><rect codeLine="22" fill="#FEFECE" filter="url(#f1auwzqe161shi)" height="112.0234" id="TailoringController" style="stroke:#A80036;stroke-width:1.5;" width="295" x="633.5" y="202"/><ellipse cx="721.75" cy="218" fill="#ADD1B2" rx="11" ry="11" style="stroke:#A80036;stroke-width:1.0;"/><path d="M724.0938,213.6719 C723.1563,213.2344 722.5625,213.0938 721.6875,213.0938 C719.0625,213.0938 717.0625,215.1719 717.0625,217.8906 L717.0625,219.0156 C717.0625,221.5938 719.1719,223.4844 722.0625,223.4844 C723.2813,223.4844 724.4375,223.1875 725.1875,222.6406 C725.7656,222.2344 726.0938,221.7813 726.0938,221.3906 C726.0938,220.9375 725.7031,220.5469 725.2344,220.5469 C725.0156,220.5469 724.8125,220.625 724.625,220.8125 C724.1719,221.2969 724.1719,221.2969 723.9844,221.3906 C723.5625,221.6563 722.875,221.7813 722.1094,221.7813 C720.0625,221.7813 718.7656,220.6875 718.7656,218.9844 L718.7656,217.8906 C718.7656,216.1094 720.0156,214.7969 721.75,214.7969 C722.3281,214.7969 722.9375,214.9531 723.4063,215.2031 C723.8906,215.4844 724.0625,215.7031 724.1563,216.1094 C724.2188,216.5156 724.25,216.6406 724.3906,216.7656 C724.5313,216.9063 724.7656,217.0156 724.9844,217.0156 C725.25,217.0156 725.5156,216.875 725.6875,216.6563 C725.7969,216.5 725.8281,216.3125 725.8281,215.8906 L725.8281,214.4688 C725.8281,214.0313 725.8125,213.9063 725.7188,213.75 C725.5625,213.4844 725.2813,213.3438 724.9844,213.3438 C724.6875,213.3438 724.4844,213.4375 724.2656,213.75 L724.0938,213.6719 Z " fill="#000000"/><text fill="#000000" font-family="sans-serif" font-size="12" lengthAdjust="spacing" textLength="110" x="742.25" y="222.1543">TailoringController</text><line style="stroke:#A80036;stroke-width:1.5;" x1="634.5" x2="927.5" y1="234" y2="234"/><ellipse cx="644.5" cy="245" rx="3" ry="3" style="stroke:#038048;stroke-width:1.0;fill:none;"/><text fill="#000000" font-family="sans-serif" font-size="11" lengthAdjust="spacing" textLength="255" x="653.5" y="248.2104">organisationRoles: Array&lt;OrgranisationRole&gt;</text><ellipse cx="644.5" cy="257.8047" rx="3" ry="3" style="stroke:#038048;stroke-width:1.0;fill:none;"/><text fill="#000000" font-family="sans-serif" font-size="11" lengthAdjust="spacing" textLength="188" x="653.5" y="261.0151">projectRoles: Array&lt;ProjectRole&gt;</text><ellipse cx="644.5" cy="270.6094" rx="3" ry="3" style="stroke:#038048;stroke-width:1.0;fill:none;"/><text fill="#000000" font-family="sans-serif" font-size="11" lengthAdjust="spacing" textLength="204" x="653.5" y="273.8198">tailoringRoles: Array&lt;TailoringRole&gt;</text><ellipse cx="644.5" cy="283.4141" rx="3" ry="3" style="stroke:#038048;stroke-width:1.0;fill:none;"/><text fill="#000000" font-family="sans-serif" font-size="11" lengthAdjust="spacing" textLength="188" x="653.5" y="286.6245">checkedTailorings: Array&lt;string&gt;</text><line style="stroke:#A80036;stroke-width:1.5;" x1="634.5" x2="927.5" y1="293.2188" y2="293.2188"/><ellipse cx="644.5" cy="304.2188" fill="#84BE84" rx="3" ry="3" style="stroke:#038048;stroke-width:1.0;"/><text fill="#000000" font-family="sans-serif" font-size="11" lengthAdjust="spacing" textLength="269" x="653.5" y="307.4292">getDependencyLabel(projectKey: string): string</text><!--MD5=[7ec6c25005e06e90aaa6ddd48a44a52a]
class JSX.Element--><rect fill="#FEFECE" filter="url(#f1auwzqe161shi)" height="48" id="JSX.Element" style="stroke:#A80036;stroke-width:1.5;" width="80" x="1041" y="234"/><ellipse cx="1056" cy="250" fill="#ADD1B2" rx="11" ry="11" style="stroke:#A80036;stroke-width:1.0;"/><path d="M1058.3438,245.6719 C1057.4063,245.2344 1056.8125,245.0938 1055.9375,245.0938 C1053.3125,245.0938 1051.3125,247.1719 1051.3125,249.8906 L1051.3125,251.0156 C1051.3125,253.5938 1053.4219,255.4844 1056.3125,255.4844 C1057.5313,255.4844 1058.6875,255.1875 1059.4375,254.6406 C1060.0156,254.2344 1060.3438,253.7813 1060.3438,253.3906 C1060.3438,252.9375 1059.9531,252.5469 1059.4844,252.5469 C1059.2656,252.5469 1059.0625,252.625 1058.875,252.8125 C1058.4219,253.2969 1058.4219,253.2969 1058.2344,253.3906 C1057.8125,253.6563 1057.125,253.7813 1056.3594,253.7813 C1054.3125,253.7813 1053.0156,252.6875 1053.0156,250.9844 L1053.0156,249.8906 C1053.0156,248.1094 1054.2656,246.7969 1056,246.7969 C1056.5781,246.7969 1057.1875,246.9531 1057.6563,247.2031 C1058.1406,247.4844 1058.3125,247.7031 1058.4063,248.1094 C1058.4688,248.5156 1058.5,248.6406 1058.6406,248.7656 C1058.7813,248.9063 1059.0156,249.0156 1059.2344,249.0156 C1059.5,249.0156 1059.7656,248.875 1059.9375,248.6563 C1060.0469,248.5 1060.0781,248.3125 1060.0781,247.8906 L1060.0781,246.4688 C1060.0781,246.0313 1060.0625,245.9063 1059.9688,245.75 C1059.8125,245.4844 1059.5313,245.3438 1059.2344,245.3438 C1058.9375,245.3438 1058.7344,245.4375 1058.5156,245.75 L1058.3438,245.6719 Z " fill="#000000"/><text fill="#000000" font-family="sans-serif" font-size="12" lengthAdjust="spacing" textLength="48" x="1070" y="254.1543">Element</text><line style="stroke:#A80036;stroke-width:1.5;" x1="1042" x2="1120" y1="266" y2="266"/><line style="stroke:#A80036;stroke-width:1.5;" x1="1042" x2="1120" y1="274" y2="274"/><!--MD5=[7f1029a1d195ff487557602559e62f39]
class ReactComponent--><rect fill="#FEFECE" filter="url(#f1auwzqe161shi)" height="48" id="ReactComponent" style="stroke:#A80036;stroke-width:1.5;" width="134" x="7" y="234"/><ellipse cx="22" cy="250" fill="#ADD1B2" rx="11" ry="11" style="stroke:#A80036;stroke-width:1.0;"/><path d="M24.3438,245.6719 C23.4063,245.2344 22.8125,245.0938 21.9375,245.0938 C19.3125,245.0938 17.3125,247.1719 17.3125,249.8906 L17.3125,251.0156 C17.3125,253.5938 19.4219,255.4844 22.3125,255.4844 C23.5313,255.4844 24.6875,255.1875 25.4375,254.6406 C26.0156,254.2344 26.3438,253.7813 26.3438,253.3906 C26.3438,252.9375 25.9531,252.5469 25.4844,252.5469 C25.2656,252.5469 25.0625,252.625 24.875,252.8125 C24.4219,253.2969 24.4219,253.2969 24.2344,253.3906 C23.8125,253.6563 23.125,253.7813 22.3594,253.7813 C20.3125,253.7813 19.0156,252.6875 19.0156,250.9844 L19.0156,249.8906 C19.0156,248.1094 20.2656,246.7969 22,246.7969 C22.5781,246.7969 23.1875,246.9531 23.6563,247.2031 C24.1406,247.4844 24.3125,247.7031 24.4063,248.1094 C24.4688,248.5156 24.5,248.6406 24.6406,248.7656 C24.7813,248.9063 25.0156,249.0156 25.2344,249.0156 C25.5,249.0156 25.7656,248.875 25.9375,248.6563 C26.0469,248.5 26.0781,248.3125 26.0781,247.8906 L26.0781,246.4688 C26.0781,246.0313 26.0625,245.9063 25.9688,245.75 C25.8125,245.4844 25.5313,245.3438 25.2344,245.3438 C24.9375,245.3438 24.7344,245.4375 24.5156,245.75 L24.3438,245.6719 Z " fill="#000000"/><text fill="#000000" font-family="sans-serif" font-size="12" lengthAdjust="spacing" textLength="102" x="36" y="254.1543">ReactComponent</text><line style="stroke:#A80036;stroke-width:1.5;" x1="8" x2="140" y1="266" y2="266"/><line style="stroke:#A80036;stroke-width:1.5;" x1="8" x2="140" y1="274" y2="274"/><!--MD5=[2f2dc5b1f3db591998473aa1c8a80a2b]
class GenericComponent--><rect codeLine="32" fill="#FEFECE" filter="url(#f1auwzqe161shi)" height="48" id="GenericComponent" style="stroke:#A80036;stroke-width:1.5;" width="148" x="176" y="234"/><ellipse cx="191" cy="250" fill="#B4A7E5" rx="11" ry="11" style="stroke:#A80036;stroke-width:1.0;"/><path d="M191.9531,246.7813 L193.6719,246.7813 C194.0625,246.7813 194.25,246.75 194.375,246.6719 C194.6406,246.5156 194.7813,246.2344 194.7813,245.9375 C194.7813,245.6719 194.6719,245.4063 194.4375,245.2344 C194.2656,245.125 194.125,245.0938 193.6719,245.0938 L188.5313,245.0938 C188.0938,245.0938 187.9688,245.1094 187.8125,245.2031 C187.5625,245.3594 187.4063,245.6563 187.4063,245.9375 C187.4063,246.2188 187.5469,246.4688 187.7656,246.6406 C187.9219,246.75 188.1094,246.7813 188.5313,246.7813 L190.25,246.7813 L190.25,253.2969 L188.5313,253.2969 C188.0938,253.2969 187.9688,253.3125 187.8125,253.4219 C187.5625,253.5781 187.4063,253.8594 187.4063,254.1563 C187.4063,254.4063 187.5469,254.6719 187.7656,254.8281 C187.9219,254.9531 188.125,255 188.5313,255 L193.6719,255 C194.4219,255 194.7813,254.7188 194.7813,254.1563 C194.7813,253.875 194.6719,253.625 194.4375,253.4531 C194.2656,253.3281 194.125,253.2969 193.6719,253.2969 L191.9531,253.2969 L191.9531,246.7813 Z " fill="#000000"/><text fill="#000000" font-family="sans-serif" font-size="12" font-style="italic" lengthAdjust="spacing" textLength="116" x="205" y="254.1543">GenericComponent</text><line style="stroke:#A80036;stroke-width:1.5;" x1="177" x2="323" y1="266" y2="266"/><line style="stroke:#A80036;stroke-width:1.5;" x1="177" x2="323" y1="274" y2="274"/><!--MD5=[de942cceaccccbd098a4ac5c1313553e]
class CheckboxValueType--><rect fill="#FEFECE" filter="url(#f1auwzqe161shi)" height="48" id="CheckboxValueType" style="stroke:#A80036;stroke-width:1.5;" width="155" x="359.5" y="234"/><ellipse cx="374.5" cy="250" fill="#ADD1B2" rx="11" ry="11" style="stroke:#A80036;stroke-width:1.0;"/><path d="M376.8438,245.6719 C375.9063,245.2344 375.3125,245.0938 374.4375,245.0938 C371.8125,245.0938 369.8125,247.1719 369.8125,249.8906 L369.8125,251.0156 C369.8125,253.5938 371.9219,255.4844 374.8125,255.4844 C376.0313,255.4844 377.1875,255.1875 377.9375,254.6406 C378.5156,254.2344 378.8438,253.7813 378.8438,253.3906 C378.8438,252.9375 378.4531,252.5469 377.9844,252.5469 C377.7656,252.5469 377.5625,252.625 377.375,252.8125 C376.9219,253.2969 376.9219,253.2969 376.7344,253.3906 C376.3125,253.6563 375.625,253.7813 374.8594,253.7813 C372.8125,253.7813 371.5156,252.6875 371.5156,250.9844 L371.5156,249.8906 C371.5156,248.1094 372.7656,246.7969 374.5,246.7969 C375.0781,246.7969 375.6875,246.9531 376.1563,247.2031 C376.6406,247.4844 376.8125,247.7031 376.9063,248.1094 C376.9688,248.5156 377,248.6406 377.1406,248.7656 C377.2813,248.9063 377.5156,249.0156 377.7344,249.0156 C378,249.0156 378.2656,248.875 378.4375,248.6563 C378.5469,248.5 378.5781,248.3125 378.5781,247.8906 L378.5781,246.4688 C378.5781,246.0313 378.5625,245.9063 378.4688,245.75 C378.3125,245.4844 378.0313,245.3438 377.7344,245.3438 C377.4375,245.3438 377.2344,245.4375 377.0156,245.75 L376.8438,245.6719 Z " fill="#000000"/><text fill="#000000" font-family="sans-serif" font-size="12" lengthAdjust="spacing" textLength="123" x="388.5" y="254.1543">CheckboxValueType</text><line style="stroke:#A80036;stroke-width:1.5;" x1="360.5" x2="513.5" y1="266" y2="266"/><line style="stroke:#A80036;stroke-width:1.5;" x1="360.5" x2="513.5" y1="274" y2="274"/><!--MD5=[c8f8358d41a1c595b99510f2374ca8ba]
class AbstractController--><rect fill="#FEFECE" filter="url(#f1auwzqe161shi)" height="48" id="AbstractController" style="stroke:#A80036;stroke-width:1.5;" width="141" x="1020.5" y="387"/><ellipse cx="1035.5" cy="403" fill="#ADD1B2" rx="11" ry="11" style="stroke:#A80036;stroke-width:1.0;"/><path d="M1037.8438,398.6719 C1036.9063,398.2344 1036.3125,398.0938 1035.4375,398.0938 C1032.8125,398.0938 1030.8125,400.1719 1030.8125,402.8906 L1030.8125,404.0156 C1030.8125,406.5938 1032.9219,408.4844 1035.8125,408.4844 C1037.0313,408.4844 1038.1875,408.1875 1038.9375,407.6406 C1039.5156,407.2344 1039.8438,406.7813 1039.8438,406.3906 C1039.8438,405.9375 1039.4531,405.5469 1038.9844,405.5469 C1038.7656,405.5469 1038.5625,405.625 1038.375,405.8125 C1037.9219,406.2969 1037.9219,406.2969 1037.7344,406.3906 C1037.3125,406.6563 1036.625,406.7813 1035.8594,406.7813 C1033.8125,406.7813 1032.5156,405.6875 1032.5156,403.9844 L1032.5156,402.8906 C1032.5156,401.1094 1033.7656,399.7969 1035.5,399.7969 C1036.0781,399.7969 1036.6875,399.9531 1037.1563,400.2031 C1037.6406,400.4844 1037.8125,400.7031 1037.9063,401.1094 C1037.9688,401.5156 1038,401.6406 1038.1406,401.7656 C1038.2813,401.9063 1038.5156,402.0156 1038.7344,402.0156 C1039,402.0156 1039.2656,401.875 1039.4375,401.6563 C1039.5469,401.5 1039.5781,401.3125 1039.5781,400.8906 L1039.5781,399.4688 C1039.5781,399.0313 1039.5625,398.9063 1039.4688,398.75 C1039.3125,398.4844 1039.0313,398.3438 1038.7344,398.3438 C1038.4375,398.3438 1038.2344,398.4375 1038.0156,398.75 L1037.8438,398.6719 Z " fill="#000000"/><text fill="#000000" font-family="sans-serif" font-size="12" lengthAdjust="spacing" textLength="109" x="1049.5" y="407.1543">AbstractController</text><line style="stroke:#A80036;stroke-width:1.5;" x1="1021.5" x2="1160.5" y1="419" y2="419"/><line style="stroke:#A80036;stroke-width:1.5;" x1="1021.5" x2="1160.5" y1="427" y2="427"/><!--MD5=[cd9c62755c54ab610ebb7c34b9cea8d7]
link TailoringComponent to ReactComponent--><path codeLine="30" d="M245.231,119.374 C214.727,129.41 184.524,142.344 158,159 C134.662,173.655 114.362,196.845 99.5672,216.988 " fill="none" id="TailoringComponent-to-ReactComponent" style="stroke:#A80036;stroke-width:1.0;"/><polygon fill="none" points="105.1903,221.163,88.0443,233.614,93.6836,213.188,105.1903,221.163" style="stroke:#A80036;stroke-width:1.0;"/><!--MD5=[05a556fb2dd189ba2612b1e2f1a2d535]
link TailoringComponent to GenericComponent--><path codeLine="31" d="M380.06,127.033 C367.228,137.136 353.895,148.153 342,159 C317.267,181.555 291.368,209.601 273.373,229.903 " fill="none" id="TailoringComponent-to-GenericComponent" style="stroke:#A80036;stroke-width:1.0;stroke-dasharray:7.0,7.0;"/><polygon fill="#A80036" points="269.883,233.857,278.8384,229.7582,273.1925,230.109,272.8417,224.4631,269.883,233.857" style="stroke:#A80036;stroke-width:1.0;"/><!--MD5=[fd5086c541d56530931fa9cb986fedb3]
link TailoringComponent to TailoringController--><path codeLine="33" d="M521.152,127.076 C566.204,149.602 622.249,177.624 670.743,201.872 " fill="none" id="TailoringComponent-TailoringController" style="stroke:#A80036;stroke-width:1.0;stroke-dasharray:7.0,7.0;"/><!--MD5=[99fb093e4cd1fdb5f9d096cbd327aeaa]
link TailoringComponent to CheckboxValueType--><path codeLine="34" d="M437,127.076 C437,160.691 437,206.546 437,233.83 " fill="none" id="TailoringComponent-CheckboxValueType" style="stroke:#A80036;stroke-width:1.0;stroke-dasharray:7.0,7.0;"/><!--MD5=[a59145ab8b629001450965b2fe41d5a7]
link TailoringComponent to JSX.Element--><path codeLine="35" d="M628.588,95.07 C766.416,105.106 938.562,124.213 1001,159 C1031.89,176.21 1055.57,210.535 1068.89,233.639 " fill="none" id="TailoringComponent-JSX.Element" style="stroke:#A80036;stroke-width:1.0;stroke-dasharray:7.0,7.0;"/><!--MD5=[2719b718fbc7b0f80b538179581dc349]
link TailoringController to AbstractController--><path codeLine="36" d="M894.233,314.155 C938.426,335.682 987.515,359.593 1025.61,378.147 " fill="none" id="TailoringController-to-AbstractController" style="stroke:#A80036;stroke-width:1.0;"/><polygon fill="none" points="1028.71,371.872,1043.62,386.9232,1022.58,384.4581,1028.71,371.872" style="stroke:#A80036;stroke-width:1.0;"/><!--MD5=[27d049007461985fe43d43f26a1d84d2]
link TailoringController to OrgranisationRole--><path codeLine="37" d="M720.497,314.369 C698.791,334.234 674.893,356.104 655.436,373.91 " fill="none" id="TailoringController-OrgranisationRole" style="stroke:#A80036;stroke-width:1.0;stroke-dasharray:7.0,7.0;"/><!--MD5=[d782f8fcd145a1d2e286ff8ab140bd69]
link TailoringController to ProjectRole--><path codeLine="38" d="M781,314.369 C781,334.234 781,356.104 781,373.91 " fill="none" id="TailoringController-ProjectRole" style="stroke:#A80036;stroke-width:1.0;stroke-dasharray:7.0,7.0;"/><!--MD5=[9a220f0950f63a265db0fc568eb48dfc]
link TailoringController to TailoringRole--><path codeLine="39" d="M836.003,314.369 C855.735,334.234 877.46,356.104 895.149,373.91 " fill="none" id="TailoringController-TailoringRole" style="stroke:#A80036;stroke-width:1.0;stroke-dasharray:7.0,7.0;"/><!--MD5=[6b2048de4eaaa8c655bed8a9f0fd5ed8]
@startuml
package demo/proj/components/projekthandbuch/tailoring/App.tsx {
class TailoringComponent {
+ctrl: TailoringController: TailoringController
-onChange(checkedValues: Array<CheckboxValueType>): void
+render(): JSX.Element
}
}

package proj/components/projekthandbuch/tailoricontroller.ts {
interface OrgranisationRole {
dependency: string
label: string
}
interface ProjectRole {
dependency: string
label: string
}
interface TailoringRole {
key: string
label: string
}
class TailoringController {
+organisationRoles: Array<OrgranisationRole>
+projectRoles: Array<ProjectRole>
+tailoringRoles: Array<TailoringRole>
+checkedTailorings: Array<string>
+getDependencyLabel(projectKey: string): string
}
}
TailoringComponent - -|> ReactComponent
TailoringComponent ..> GenericComponent
interface GenericComponent {}
TailoringComponent .. TailoringController
TailoringComponent .. CheckboxValueType
TailoringComponent .. JSX.Element
TailoringController - -|> AbstractController
TailoringController .. OrgranisationRole
TailoringController .. ProjectRole
TailoringController .. TailoringRole
@enduml

PlantUML version 1.2021.2beta14(Unknown compile time)
(GPL source distribution)
Java Runtime: Java(TM) SE Runtime Environment
JVM: Java HotSpot(TM) 64-Bit Server VM
Default Encoding: UTF-8
Language: en
Country: US
--></g></svg>
