<?xml version="1.0" encoding="UTF-8" standalone="no"?><svg xmlns="http://www.w3.org/2000/svg" xmlns:xlink="http://www.w3.org/1999/xlink" contentScriptType="application/ecmascript" contentStyleType="text/css" height="802px" preserveAspectRatio="none" style="width:3790px;height:802px;" version="1.1" viewBox="0 0 3790 802" width="3790px" zoomAndPan="magnify"><defs><filter height="300%" id="f1pzvxg61dd2ru" width="300%" x="-1" y="-1"><feGaussianBlur result="blurOut" stdDeviation="2.0"/><feColorMatrix in="blurOut" result="blurOut2" type="matrix" values="0 0 0 0 0 0 0 0 0 0 0 0 0 0 0 0 0 0 .4 0"/><feOffset dx="4.0" dy="4.0" in="blurOut2" result="blurOut3"/><feBlend in="SourceGraphic" in2="blurOut3" mode="normal"/></filter></defs><g><!--MD5=[3a3a3d052234cae46d28a8ecb05a6f5e]
cluster demo/proj/components/projekthandbuch/projekt/component.tsx--><polygon fill="#FFFFFF" filter="url(#f1pzvxg61dd2ru)" points="1898,50.5,2422,50.5,2429,72.7969,2432,72.7969,2432,175.5,1898,175.5,1898,50.5" style="stroke:#000000;stroke-width:1.5;"/><line style="stroke:#000000;stroke-width:1.5;" x1="1898" x2="2429" y1="72.7969" y2="72.7969"/><text fill="#000000" font-family="sans-serif" font-size="14" font-weight="bold" lengthAdjust="spacing" textLength="518" x="1902" y="65.4951">demo/proj/components/projekthandbuch/projekt/component.tsx</text><!--MD5=[1b5c82ae65b7f8307981d2c4679c9c62]
cluster proj/components/projekthandbuch/projekt/anwendungsprofile/component.tsx--><polygon fill="#FFFFFF" filter="url(#f1pzvxg61dd2ru)" points="2456,6,3090,6,3097,28.2969,3100,28.2969,3100,220,2456,220,2456,6" style="stroke:#000000;stroke-width:1.5;"/><line style="stroke:#000000;stroke-width:1.5;" x1="2456" x2="3097" y1="28.2969" y2="28.2969"/><text fill="#000000" font-family="sans-serif" font-size="14" font-weight="bold" lengthAdjust="spacing" textLength="628" x="2460" y="20.9951">proj/components/projekthandbuch/projekt/anwendungsprofile/component.tsx</text><!--MD5=[a6ef2a78140e59309f15d2a7ac74811e]
cluster proj/components/projekthandbuch/projekt/anwendungsprofile/controller.ts--><polygon fill="#FFFFFF" filter="url(#f1pzvxg61dd2ru)" points="3043,288.5,3657,288.5,3664,310.7969,3713,310.7969,3713,645,3043,645,3043,288.5" style="stroke:#000000;stroke-width:1.5;"/><line style="stroke:#000000;stroke-width:1.5;" x1="3043" x2="3664" y1="310.7969" y2="310.7969"/><text fill="#000000" font-family="sans-serif" font-size="14" font-weight="bold" lengthAdjust="spacing" textLength="608" x="3047" y="303.4951">proj/components/projekthandbuch/projekt/anwendungsprofile/controller.ts</text><!--MD5=[994be106ec728fff08be48e52878ef46]
cluster proj/services/projekthandbuch/service.ts--><polygon fill="#FFFFFF" filter="url(#f1pzvxg61dd2ru)" points="1945,482,2280,482,2287,504.2969,2290,504.2969,2290,696,1945,696,1945,482" style="stroke:#000000;stroke-width:1.5;"/><line style="stroke:#000000;stroke-width:1.5;" x1="1945" x2="2287" y1="504.2969" y2="504.2969"/><text fill="#000000" font-family="sans-serif" font-size="14" font-weight="bold" lengthAdjust="spacing" textLength="329" x="1949" y="496.9951">proj/services/projekthandbuch/service.ts</text><!--MD5=[5c1dccb04abc31b15ef11d9579cdb880]
cluster proj/components/projekthandbuch/projekt/controller.ts--><polygon fill="#FFFFFF" filter="url(#f1pzvxg61dd2ru)" points="2403,282.5,2858,282.5,2865,304.7969,3019,304.7969,3019,419.5,2403,419.5,2403,282.5" style="stroke:#000000;stroke-width:1.5;"/><line style="stroke:#000000;stroke-width:1.5;" x1="2403" x2="2865" y1="304.7969" y2="304.7969"/><text fill="#000000" font-family="sans-serif" font-size="14" font-weight="bold" lengthAdjust="spacing" textLength="449" x="2407" y="297.4951">proj/components/projekthandbuch/projekt/controller.ts</text><!--MD5=[ac16e345e90d15a5c085dfddac51303d]
cluster proj/components/projekthandbuch/projekt/meta-modell/component.tsx--><polygon fill="#FFFFFF" filter="url(#f1pzvxg61dd2ru)" points="1282,50.5,1864,50.5,1871,72.7969,1874,72.7969,1874,175.5,1282,175.5,1282,50.5" style="stroke:#000000;stroke-width:1.5;"/><line style="stroke:#000000;stroke-width:1.5;" x1="1282" x2="1871" y1="72.7969" y2="72.7969"/><text fill="#000000" font-family="sans-serif" font-size="14" font-weight="bold" lengthAdjust="spacing" textLength="576" x="1286" y="65.4951">proj/components/projekthandbuch/projekt/meta-modell/component.tsx</text><!--MD5=[654d0e22dca8bef2c55a7312ce83fdae]
cluster proj/components/projekthandbuch/projekt/meta-modell/controller.ts--><polygon fill="#FFFFFF" filter="url(#f1pzvxg61dd2ru)" points="1807,288.5,2369,288.5,2376,310.7969,2379,310.7969,2379,413.5,1807,413.5,1807,288.5" style="stroke:#000000;stroke-width:1.5;"/><line style="stroke:#000000;stroke-width:1.5;" x1="1807" x2="2376" y1="310.7969" y2="310.7969"/><text fill="#000000" font-family="sans-serif" font-size="14" font-weight="bold" lengthAdjust="spacing" textLength="556" x="1811" y="303.4951">proj/components/projekthandbuch/projekt/meta-modell/controller.ts</text><!--MD5=[80b79be97635e740809623edd0e6c598]
cluster proj/components/projekthandbuch/projekt/projekttyp/component.tsx--><polygon fill="#FFFFFF" filter="url(#f1pzvxg61dd2ru)" points="16,31.5,581,31.5,588,53.7969,591,53.7969,591,194.5,16,194.5,16,31.5" style="stroke:#000000;stroke-width:1.5;"/><line style="stroke:#000000;stroke-width:1.5;" x1="16" x2="588" y1="53.7969" y2="53.7969"/><text fill="#000000" font-family="sans-serif" font-size="14" font-weight="bold" lengthAdjust="spacing" textLength="559" x="20" y="46.4951">proj/components/projekthandbuch/projekt/projekttyp/component.tsx</text><!--MD5=[8e1bec33b8a57a3e6c969a1ed4d34b30]
cluster proj/components/projekthandbuch/projekt/projekttyp/controller.ts--><polygon fill="#FFFFFF" filter="url(#f1pzvxg61dd2ru)" points="70,244,615,244,622,266.2969,625,266.2969,625,458,70,458,70,244" style="stroke:#000000;stroke-width:1.5;"/><line style="stroke:#000000;stroke-width:1.5;" x1="70" x2="622" y1="266.2969" y2="266.2969"/><text fill="#000000" font-family="sans-serif" font-size="14" font-weight="bold" lengthAdjust="spacing" textLength="539" x="74" y="258.9951">proj/components/projekthandbuch/projekt/projekttyp/controller.ts</text><!--MD5=[9808ef3f1b4c16a608ab839c0e918f3e]
cluster proj/components/projekthandbuch/projekt/projekttypvariante/component.tsx--><polygon fill="#FFFFFF" filter="url(#f1pzvxg61dd2ru)" points="615,31.5,1248,31.5,1255,53.7969,1258,53.7969,1258,194.5,615,194.5,615,31.5" style="stroke:#000000;stroke-width:1.5;"/><line style="stroke:#000000;stroke-width:1.5;" x1="615" x2="1255" y1="53.7969" y2="53.7969"/><text fill="#000000" font-family="sans-serif" font-size="14" font-weight="bold" lengthAdjust="spacing" textLength="627" x="619" y="46.4951">proj/components/projekthandbuch/projekt/projekttypvariante/component.tsx</text><!--MD5=[b6c34a00e6ced5a6f3d1d9c73d4c3db2]
cluster proj/components/projekthandbuch/projekt/projekttypvariante/controller.ts--><polygon fill="#FFFFFF" filter="url(#f1pzvxg61dd2ru)" points="649,244,1262,244,1269,266.2969,1272,266.2969,1272,458,649,458,649,244" style="stroke:#000000;stroke-width:1.5;"/><line style="stroke:#000000;stroke-width:1.5;" x1="649" x2="1269" y1="266.2969" y2="266.2969"/><text fill="#000000" font-family="sans-serif" font-size="14" font-weight="bold" lengthAdjust="spacing" textLength="607" x="653" y="258.9951">proj/components/projekthandbuch/projekt/projekttypvariante/controller.ts</text><!--MD5=[66c7d7bc203ec41417867dea3b7f9715]
cluster JSX--><polygon fill="#FFFFFF" filter="url(#f1pzvxg61dd2ru)" points="1441,301.5,1473,301.5,1480,323.7969,1553,323.7969,1553,400.5,1441,400.5,1441,301.5" style="stroke:#000000;stroke-width:1.5;"/><line style="stroke:#000000;stroke-width:1.5;" x1="1441" x2="1480" y1="323.7969" y2="323.7969"/><text fill="#000000" font-family="sans-serif" font-size="14" font-weight="bold" lengthAdjust="spacing" textLength="26" x="1445" y="316.4951">JSX</text><!--MD5=[93b4c4ece7c9d46b41e0829b268a1bae]
class ProjektComponent--><rect codeLine="2" fill="#FEFECE" filter="url(#f1pzvxg61dd2ru)" height="73.6094" id="ProjektComponent" style="stroke:#A80036;stroke-width:1.5;" width="243" x="1914.5" y="85.5"/><ellipse cx="1976.75" cy="101.5" fill="#ADD1B2" rx="11" ry="11" style="stroke:#A80036;stroke-width:1.0;"/><path d="M1979.0938,97.1719 C1978.1563,96.7344 1977.5625,96.5938 1976.6875,96.5938 C1974.0625,96.5938 1972.0625,98.6719 1972.0625,101.3906 L1972.0625,102.5156 C1972.0625,105.0938 1974.1719,106.9844 1977.0625,106.9844 C1978.2813,106.9844 1979.4375,106.6875 1980.1875,106.1406 C1980.7656,105.7344 1981.0938,105.2813 1981.0938,104.8906 C1981.0938,104.4375 1980.7031,104.0469 1980.2344,104.0469 C1980.0156,104.0469 1979.8125,104.125 1979.625,104.3125 C1979.1719,104.7969 1979.1719,104.7969 1978.9844,104.8906 C1978.5625,105.1563 1977.875,105.2813 1977.1094,105.2813 C1975.0625,105.2813 1973.7656,104.1875 1973.7656,102.4844 L1973.7656,101.3906 C1973.7656,99.6094 1975.0156,98.2969 1976.75,98.2969 C1977.3281,98.2969 1977.9375,98.4531 1978.4063,98.7031 C1978.8906,98.9844 1979.0625,99.2031 1979.1563,99.6094 C1979.2188,100.0156 1979.25,100.1406 1979.3906,100.2656 C1979.5313,100.4063 1979.7656,100.5156 1979.9844,100.5156 C1980.25,100.5156 1980.5156,100.375 1980.6875,100.1563 C1980.7969,100 1980.8281,99.8125 1980.8281,99.3906 L1980.8281,97.9688 C1980.8281,97.5313 1980.8125,97.4063 1980.7188,97.25 C1980.5625,96.9844 1980.2813,96.8438 1979.9844,96.8438 C1979.6875,96.8438 1979.4844,96.9375 1979.2656,97.25 L1979.0938,97.1719 Z " fill="#000000"/><text fill="#000000" font-family="sans-serif" font-size="12" lengthAdjust="spacing" textLength="110" x="1997.25" y="105.6543">ProjektComponent</text><line style="stroke:#A80036;stroke-width:1.5;" x1="1915.5" x2="2156.5" y1="117.5" y2="117.5"/><ellipse cx="1925.5" cy="128.5" rx="3" ry="3" style="stroke:#038048;stroke-width:1.0;fill:none;"/><text fill="#000000" font-family="sans-serif" font-size="11" lengthAdjust="spacing" textLength="217" x="1934.5" y="131.7104">ctrl: ProjektController: ProjektController</text><line style="stroke:#A80036;stroke-width:1.5;" x1="1915.5" x2="2156.5" y1="138.3047" y2="138.3047"/><ellipse cx="1925.5" cy="149.3047" fill="#84BE84" rx="3" ry="3" style="stroke:#038048;stroke-width:1.0;"/><text fill="#000000" font-family="sans-serif" font-size="11" lengthAdjust="spacing" textLength="123" x="1934.5" y="152.5151">render(): JSX.Element</text><!--MD5=[600fbb8f5e88d452db405b0170467ca4]
class AnwendungsprofileComponent--><rect codeLine="9" fill="#FEFECE" filter="url(#f1pzvxg61dd2ru)" height="163.2422" id="AnwendungsprofileComponent" style="stroke:#A80036;stroke-width:1.5;" width="385" x="2472.5" y="41"/><ellipse cx="2568.25" cy="57" fill="#ADD1B2" rx="11" ry="11" style="stroke:#A80036;stroke-width:1.0;"/><path d="M2570.5938,52.6719 C2569.6563,52.2344 2569.0625,52.0938 2568.1875,52.0938 C2565.5625,52.0938 2563.5625,54.1719 2563.5625,56.8906 L2563.5625,58.0156 C2563.5625,60.5938 2565.6719,62.4844 2568.5625,62.4844 C2569.7813,62.4844 2570.9375,62.1875 2571.6875,61.6406 C2572.2656,61.2344 2572.5938,60.7813 2572.5938,60.3906 C2572.5938,59.9375 2572.2031,59.5469 2571.7344,59.5469 C2571.5156,59.5469 2571.3125,59.625 2571.125,59.8125 C2570.6719,60.2969 2570.6719,60.2969 2570.4844,60.3906 C2570.0625,60.6563 2569.375,60.7813 2568.6094,60.7813 C2566.5625,60.7813 2565.2656,59.6875 2565.2656,57.9844 L2565.2656,56.8906 C2565.2656,55.1094 2566.5156,53.7969 2568.25,53.7969 C2568.8281,53.7969 2569.4375,53.9531 2569.9063,54.2031 C2570.3906,54.4844 2570.5625,54.7031 2570.6563,55.1094 C2570.7188,55.5156 2570.75,55.6406 2570.8906,55.7656 C2571.0313,55.9063 2571.2656,56.0156 2571.4844,56.0156 C2571.75,56.0156 2572.0156,55.875 2572.1875,55.6563 C2572.2969,55.5 2572.3281,55.3125 2572.3281,54.8906 L2572.3281,53.4688 C2572.3281,53.0313 2572.3125,52.9063 2572.2188,52.75 C2572.0625,52.4844 2571.7813,52.3438 2571.4844,52.3438 C2571.1875,52.3438 2570.9844,52.4375 2570.7656,52.75 L2570.5938,52.6719 Z " fill="#000000"/><text fill="#000000" font-family="sans-serif" font-size="12" lengthAdjust="spacing" textLength="185" x="2588.75" y="61.1543">AnwendungsprofileComponent</text><line style="stroke:#A80036;stroke-width:1.5;" x1="2473.5" x2="2856.5" y1="73" y2="73"/><ellipse cx="2483.5" cy="84" rx="3" ry="3" style="stroke:#038048;stroke-width:1.0;fill:none;"/><text fill="#000000" font-family="sans-serif" font-size="11" lengthAdjust="spacing" textLength="359" x="2492.5" y="87.2104">ctrl: AnwendungsprofileController: AnwendungsprofileController</text><rect fill="none" height="6" style="stroke:#C82930;stroke-width:1.0;" width="6" x="2480.5" y="93.8047"/><text fill="#000000" font-family="sans-serif" font-size="11" lengthAdjust="spacing" textLength="289" x="2492.5" y="100.0151">projectTypeSubscription: Subscription: Subscription</text><rect fill="none" height="6" style="stroke:#C82930;stroke-width:1.0;" width="6" x="2480.5" y="106.6094"/><text fill="#000000" font-family="sans-serif" font-size="11" lengthAdjust="spacing" textLength="329" x="2492.5" y="112.8198">projectTypeVariantSubscription: Subscription: Subscription</text><rect fill="none" height="6" style="stroke:#C82930;stroke-width:1.0;" width="6" x="2480.5" y="119.4141"/><text fill="#000000" font-family="sans-serif" font-size="11" lengthAdjust="spacing" textLength="281" x="2492.5" y="125.6245">projectFeatures: Array&lt;ExtendedProjectFeature&gt;</text><rect fill="none" height="6" style="stroke:#C82930;stroke-width:1.0;" width="6" x="2480.5" y="132.2188"/><text fill="#000000" font-family="sans-serif" font-size="11" lengthAdjust="spacing" textLength="78" x="2492.5" y="138.4292">projectTypeId</text><rect fill="none" height="6" style="stroke:#C82930;stroke-width:1.0;" width="6" x="2480.5" y="145.0234"/><text fill="#000000" font-family="sans-serif" font-size="11" lengthAdjust="spacing" textLength="118" x="2492.5" y="151.2339">projectTypeVariantId</text><line style="stroke:#A80036;stroke-width:1.5;" x1="2473.5" x2="2856.5" y1="157.8281" y2="157.8281"/><ellipse cx="2483.5" cy="168.8281" fill="#84BE84" rx="3" ry="3" style="stroke:#038048;stroke-width:1.0;"/><text fill="#000000" font-family="sans-serif" font-size="11" lengthAdjust="spacing" textLength="156" x="2492.5" y="172.0386">componentDidMount(): void</text><ellipse cx="2483.5" cy="181.6328" fill="#84BE84" rx="3" ry="3" style="stroke:#038048;stroke-width:1.0;"/><text fill="#000000" font-family="sans-serif" font-size="11" lengthAdjust="spacing" textLength="174" x="2492.5" y="184.8433">componentWillUnmount(): void</text><ellipse cx="2483.5" cy="194.4375" fill="#84BE84" rx="3" ry="3" style="stroke:#038048;stroke-width:1.0;"/><text fill="#000000" font-family="sans-serif" font-size="11" lengthAdjust="spacing" textLength="123" x="2492.5" y="197.6479">render(): JSX.Element</text><!--MD5=[3adeaa5c161938a81bb6f48659bd7ee3]
class ExtendedProjectFeature--><rect codeLine="23" fill="#FEFECE" filter="url(#f1pzvxg61dd2ru)" height="60.8047" id="ExtendedProjectFeature" style="stroke:#A80036;stroke-width:1.5;" width="177" x="3289.5" y="568"/><ellipse cx="3304.5" cy="584" fill="#B4A7E5" rx="11" ry="11" style="stroke:#A80036;stroke-width:1.0;"/><path d="M3305.4531,580.7813 L3307.1719,580.7813 C3307.5625,580.7813 3307.75,580.75 3307.875,580.6719 C3308.1406,580.5156 3308.2813,580.2344 3308.2813,579.9375 C3308.2813,579.6719 3308.1719,579.4063 3307.9375,579.2344 C3307.7656,579.125 3307.625,579.0938 3307.1719,579.0938 L3302.0313,579.0938 C3301.5938,579.0938 3301.4688,579.1094 3301.3125,579.2031 C3301.0625,579.3594 3300.9063,579.6563 3300.9063,579.9375 C3300.9063,580.2188 3301.0469,580.4688 3301.2656,580.6406 C3301.4219,580.75 3301.6094,580.7813 3302.0313,580.7813 L3303.75,580.7813 L3303.75,587.2969 L3302.0313,587.2969 C3301.5938,587.2969 3301.4688,587.3125 3301.3125,587.4219 C3301.0625,587.5781 3300.9063,587.8594 3300.9063,588.1563 C3300.9063,588.4063 3301.0469,588.6719 3301.2656,588.8281 C3301.4219,588.9531 3301.625,589 3302.0313,589 L3307.1719,589 C3307.9219,589 3308.2813,588.7188 3308.2813,588.1563 C3308.2813,587.875 3308.1719,587.625 3307.9375,587.4531 C3307.7656,587.3281 3307.625,587.2969 3307.1719,587.2969 L3305.4531,587.2969 L3305.4531,580.7813 Z " fill="#000000"/><text fill="#000000" font-family="sans-serif" font-size="12" font-style="italic" lengthAdjust="spacing" textLength="145" x="3318.5" y="588.1543">ExtendedProjectFeature</text><line style="stroke:#A80036;stroke-width:1.5;" x1="3290.5" x2="3465.5" y1="600" y2="600"/><text fill="#000000" font-family="sans-serif" font-size="11" lengthAdjust="spacing" textLength="41" x="3295.5" y="614.2104">values:</text><line style="stroke:#A80036;stroke-width:1.5;" x1="3290.5" x2="3465.5" y1="620.8047" y2="620.8047"/><!--MD5=[1f6be5fc87ae5f75281697d5f1dead8f]
class AnwendungsprofileController--><rect codeLine="26" fill="#FEFECE" filter="url(#f1pzvxg61dd2ru)" height="73.6094" id="AnwendungsprofileController" style="stroke:#A80036;stroke-width:1.5;" width="638" x="3059" y="323.5"/><ellipse cx="3286.25" cy="339.5" fill="#ADD1B2" rx="11" ry="11" style="stroke:#A80036;stroke-width:1.0;"/><path d="M3288.5938,335.1719 C3287.6563,334.7344 3287.0625,334.5938 3286.1875,334.5938 C3283.5625,334.5938 3281.5625,336.6719 3281.5625,339.3906 L3281.5625,340.5156 C3281.5625,343.0938 3283.6719,344.9844 3286.5625,344.9844 C3287.7813,344.9844 3288.9375,344.6875 3289.6875,344.1406 C3290.2656,343.7344 3290.5938,343.2813 3290.5938,342.8906 C3290.5938,342.4375 3290.2031,342.0469 3289.7344,342.0469 C3289.5156,342.0469 3289.3125,342.125 3289.125,342.3125 C3288.6719,342.7969 3288.6719,342.7969 3288.4844,342.8906 C3288.0625,343.1563 3287.375,343.2813 3286.6094,343.2813 C3284.5625,343.2813 3283.2656,342.1875 3283.2656,340.4844 L3283.2656,339.3906 C3283.2656,337.6094 3284.5156,336.2969 3286.25,336.2969 C3286.8281,336.2969 3287.4375,336.4531 3287.9063,336.7031 C3288.3906,336.9844 3288.5625,337.2031 3288.6563,337.6094 C3288.7188,338.0156 3288.75,338.1406 3288.8906,338.2656 C3289.0313,338.4063 3289.2656,338.5156 3289.4844,338.5156 C3289.75,338.5156 3290.0156,338.375 3290.1875,338.1563 C3290.2969,338 3290.3281,337.8125 3290.3281,337.3906 L3290.3281,335.9688 C3290.3281,335.5313 3290.3125,335.4063 3290.2188,335.25 C3290.0625,334.9844 3289.7813,334.8438 3289.4844,334.8438 C3289.1875,334.8438 3288.9844,334.9375 3288.7656,335.25 L3288.5938,335.1719 Z " fill="#000000"/><text fill="#000000" font-family="sans-serif" font-size="12" lengthAdjust="spacing" textLength="175" x="3306.75" y="343.6543">AnwendungsprofileController</text><line style="stroke:#A80036;stroke-width:1.5;" x1="3060" x2="3696" y1="355.5" y2="355.5"/><ellipse cx="3070" cy="366.5" rx="3" ry="3" style="stroke:#038048;stroke-width:1.0;fill:none;"/><text fill="#000000" font-family="sans-serif" font-size="11" lengthAdjust="spacing" textLength="282" x="3079" y="369.7104">projekthandbuchService: ProjekthandbuchService</text><line style="stroke:#A80036;stroke-width:1.5;" x1="3060" x2="3696" y1="376.3047" y2="376.3047"/><ellipse cx="3070" cy="387.3047" fill="#84BE84" rx="3" ry="3" style="stroke:#038048;stroke-width:1.0;"/><text fill="#000000" font-family="sans-serif" font-size="11" lengthAdjust="spacing" textLength="612" x="3079" y="390.5151">getProjectFeatures(projectTypeId: number, projectTypeVariantId: number): Array&lt;ExtendedProjectFeature&gt;</text><!--MD5=[535eeffbfa182c5c1e6284030073ebc4]
class ProjekthandbuchService--><rect codeLine="33" fill="#FEFECE" filter="url(#f1pzvxg61dd2ru)" height="163.2422" id="ProjekthandbuchService" style="stroke:#A80036;stroke-width:1.5;" width="283" x="1962.5" y="517"/><ellipse cx="2027.25" cy="533" fill="#ADD1B2" rx="11" ry="11" style="stroke:#A80036;stroke-width:1.0;"/><path d="M2029.5938,528.6719 C2028.6563,528.2344 2028.0625,528.0938 2027.1875,528.0938 C2024.5625,528.0938 2022.5625,530.1719 2022.5625,532.8906 L2022.5625,534.0156 C2022.5625,536.5938 2024.6719,538.4844 2027.5625,538.4844 C2028.7813,538.4844 2029.9375,538.1875 2030.6875,537.6406 C2031.2656,537.2344 2031.5938,536.7813 2031.5938,536.3906 C2031.5938,535.9375 2031.2031,535.5469 2030.7344,535.5469 C2030.5156,535.5469 2030.3125,535.625 2030.125,535.8125 C2029.6719,536.2969 2029.6719,536.2969 2029.4844,536.3906 C2029.0625,536.6563 2028.375,536.7813 2027.6094,536.7813 C2025.5625,536.7813 2024.2656,535.6875 2024.2656,533.9844 L2024.2656,532.8906 C2024.2656,531.1094 2025.5156,529.7969 2027.25,529.7969 C2027.8281,529.7969 2028.4375,529.9531 2028.9063,530.2031 C2029.3906,530.4844 2029.5625,530.7031 2029.6563,531.1094 C2029.7188,531.5156 2029.75,531.6406 2029.8906,531.7656 C2030.0313,531.9063 2030.2656,532.0156 2030.4844,532.0156 C2030.75,532.0156 2031.0156,531.875 2031.1875,531.6563 C2031.2969,531.5 2031.3281,531.3125 2031.3281,530.8906 L2031.3281,529.4688 C2031.3281,529.0313 2031.3125,528.9063 2031.2188,528.75 C2031.0625,528.4844 2030.7813,528.3438 2030.4844,528.3438 C2030.1875,528.3438 2029.9844,528.4375 2029.7656,528.75 L2029.5938,528.6719 Z " fill="#000000"/><text fill="#000000" font-family="sans-serif" font-size="12" lengthAdjust="spacing" textLength="145" x="2047.75" y="537.1543">ProjekthandbuchService</text><line style="stroke:#A80036;stroke-width:1.5;" x1="1963.5" x2="2244.5" y1="549" y2="549"/><ellipse cx="1973.5" cy="560" rx="3" ry="3" style="stroke:#038048;stroke-width:1.0;fill:none;"/><text fill="#000000" font-family="sans-serif" font-size="11" lengthAdjust="spacing" textLength="175" x="1982.5" y="563.2104">metaModelId: BehaviorSubject</text><ellipse cx="1973.5" cy="572.8047" rx="3" ry="3" style="stroke:#038048;stroke-width:1.0;fill:none;"/><text fill="#000000" font-family="sans-serif" font-size="11" lengthAdjust="spacing" textLength="179" x="1982.5" y="576.0151">projectTypeId: BehaviorSubject</text><ellipse cx="1973.5" cy="585.6094" rx="3" ry="3" style="stroke:#038048;stroke-width:1.0;fill:none;"/><text fill="#000000" font-family="sans-serif" font-size="11" lengthAdjust="spacing" textLength="219" x="1982.5" y="588.8198">projectTypeVariantId: BehaviorSubject</text><line style="stroke:#A80036;stroke-width:1.5;" x1="1963.5" x2="2244.5" y1="595.4141" y2="595.4141"/><ellipse cx="1973.5" cy="606.4141" fill="#84BE84" rx="3" ry="3" style="stroke:#038048;stroke-width:1.0;"/><text fill="#000000" font-family="sans-serif" font-size="11" lengthAdjust="spacing" textLength="172" x="1982.5" y="609.6245">getMetaModelId(): Observable</text><ellipse cx="1973.5" cy="619.2188" fill="#84BE84" rx="3" ry="3" style="stroke:#038048;stroke-width:1.0;"/><text fill="#000000" font-family="sans-serif" font-size="11" lengthAdjust="spacing" textLength="212" x="1982.5" y="622.4292">setMetaModelId(value: number): void</text><ellipse cx="1973.5" cy="632.0234" fill="#84BE84" rx="3" ry="3" style="stroke:#038048;stroke-width:1.0;"/><text fill="#000000" font-family="sans-serif" font-size="11" lengthAdjust="spacing" textLength="177" x="1982.5" y="635.2339">getProjectTypeId(): Observable</text><ellipse cx="1973.5" cy="644.8281" fill="#84BE84" rx="3" ry="3" style="stroke:#038048;stroke-width:1.0;"/><text fill="#000000" font-family="sans-serif" font-size="11" lengthAdjust="spacing" textLength="217" x="1982.5" y="648.0386">setProjectTypeId(value: number): void</text><ellipse cx="1973.5" cy="657.6328" fill="#84BE84" rx="3" ry="3" style="stroke:#038048;stroke-width:1.0;"/><text fill="#000000" font-family="sans-serif" font-size="11" lengthAdjust="spacing" textLength="217" x="1982.5" y="660.8433">getProjectTypeVariantId(): Observable</text><ellipse cx="1973.5" cy="670.4375" fill="#84BE84" rx="3" ry="3" style="stroke:#038048;stroke-width:1.0;"/><text fill="#000000" font-family="sans-serif" font-size="11" lengthAdjust="spacing" textLength="257" x="1982.5" y="673.6479">setProjectTypeVariantId(value: number): void</text><!--MD5=[c3f37af79b74dbd1a322b03469f00587]
class ProjektController--><rect codeLine="46" fill="#FEFECE" filter="url(#f1pzvxg61dd2ru)" height="86.4141" id="ProjektController" style="stroke:#A80036;stroke-width:1.5;" width="583" x="2419.5" y="317.5"/><ellipse cx="2656.75" cy="333.5" fill="#ADD1B2" rx="11" ry="11" style="stroke:#A80036;stroke-width:1.0;"/><path d="M2659.0938,329.1719 C2658.1563,328.7344 2657.5625,328.5938 2656.6875,328.5938 C2654.0625,328.5938 2652.0625,330.6719 2652.0625,333.3906 L2652.0625,334.5156 C2652.0625,337.0938 2654.1719,338.9844 2657.0625,338.9844 C2658.2813,338.9844 2659.4375,338.6875 2660.1875,338.1406 C2660.7656,337.7344 2661.0938,337.2813 2661.0938,336.8906 C2661.0938,336.4375 2660.7031,336.0469 2660.2344,336.0469 C2660.0156,336.0469 2659.8125,336.125 2659.625,336.3125 C2659.1719,336.7969 2659.1719,336.7969 2658.9844,336.8906 C2658.5625,337.1563 2657.875,337.2813 2657.1094,337.2813 C2655.0625,337.2813 2653.7656,336.1875 2653.7656,334.4844 L2653.7656,333.3906 C2653.7656,331.6094 2655.0156,330.2969 2656.75,330.2969 C2657.3281,330.2969 2657.9375,330.4531 2658.4063,330.7031 C2658.8906,330.9844 2659.0625,331.2031 2659.1563,331.6094 C2659.2188,332.0156 2659.25,332.1406 2659.3906,332.2656 C2659.5313,332.4063 2659.7656,332.5156 2659.9844,332.5156 C2660.25,332.5156 2660.5156,332.375 2660.6875,332.1563 C2660.7969,332 2660.8281,331.8125 2660.8281,331.3906 L2660.8281,329.9688 C2660.8281,329.5313 2660.8125,329.4063 2660.7188,329.25 C2660.5625,328.9844 2660.2813,328.8438 2659.9844,328.8438 C2659.6875,328.8438 2659.4844,328.9375 2659.2656,329.25 L2659.0938,329.1719 Z " fill="#000000"/><text fill="#000000" font-family="sans-serif" font-size="12" lengthAdjust="spacing" textLength="100" x="2677.25" y="337.6543">ProjektController</text><line style="stroke:#A80036;stroke-width:1.5;" x1="2420.5" x2="3001.5" y1="349.5" y2="349.5"/><ellipse cx="2430.5" cy="360.5" rx="3" ry="3" style="stroke:#038048;stroke-width:1.0;fill:none;"/><text fill="#000000" font-family="sans-serif" font-size="11" lengthAdjust="spacing" textLength="284" x="2439.5" y="363.7104">projectFeatures: Array&lt;ContainsProductFeatures&gt;</text><ellipse cx="2430.5" cy="373.3047" rx="3" ry="3" style="stroke:#038048;stroke-width:1.0;fill:none;"/><text fill="#000000" font-family="sans-serif" font-size="11" lengthAdjust="spacing" textLength="282" x="2439.5" y="376.5151">projekthandbuchService: ProjekthandbuchService</text><line style="stroke:#A80036;stroke-width:1.5;" x1="2420.5" x2="3001.5" y1="383.1094" y2="383.1094"/><ellipse cx="2430.5" cy="394.1094" fill="#84BE84" rx="3" ry="3" style="stroke:#038048;stroke-width:1.0;"/><text fill="#000000" font-family="sans-serif" font-size="11" lengthAdjust="spacing" textLength="557" x="2439.5" y="397.3198">getProjectFeatures(projectTypeId: number, projectTypeVariantId: number): Array&lt;ProjectFeature&gt;</text><!--MD5=[d3e7de0ae834e1a74d109ead25100f15]
class MetaModellComponent--><rect codeLine="53" fill="#FEFECE" filter="url(#f1pzvxg61dd2ru)" height="73.6094" id="MetaModellComponent" style="stroke:#A80036;stroke-width:1.5;" width="297" x="1422.5" y="85.5"/><ellipse cx="1497.75" cy="101.5" fill="#ADD1B2" rx="11" ry="11" style="stroke:#A80036;stroke-width:1.0;"/><path d="M1500.0938,97.1719 C1499.1563,96.7344 1498.5625,96.5938 1497.6875,96.5938 C1495.0625,96.5938 1493.0625,98.6719 1493.0625,101.3906 L1493.0625,102.5156 C1493.0625,105.0938 1495.1719,106.9844 1498.0625,106.9844 C1499.2813,106.9844 1500.4375,106.6875 1501.1875,106.1406 C1501.7656,105.7344 1502.0938,105.2813 1502.0938,104.8906 C1502.0938,104.4375 1501.7031,104.0469 1501.2344,104.0469 C1501.0156,104.0469 1500.8125,104.125 1500.625,104.3125 C1500.1719,104.7969 1500.1719,104.7969 1499.9844,104.8906 C1499.5625,105.1563 1498.875,105.2813 1498.1094,105.2813 C1496.0625,105.2813 1494.7656,104.1875 1494.7656,102.4844 L1494.7656,101.3906 C1494.7656,99.6094 1496.0156,98.2969 1497.75,98.2969 C1498.3281,98.2969 1498.9375,98.4531 1499.4063,98.7031 C1499.8906,98.9844 1500.0625,99.2031 1500.1563,99.6094 C1500.2188,100.0156 1500.25,100.1406 1500.3906,100.2656 C1500.5313,100.4063 1500.7656,100.5156 1500.9844,100.5156 C1501.25,100.5156 1501.5156,100.375 1501.6875,100.1563 C1501.7969,100 1501.8281,99.8125 1501.8281,99.3906 L1501.8281,97.9688 C1501.8281,97.5313 1501.8125,97.4063 1501.7188,97.25 C1501.5625,96.9844 1501.2813,96.8438 1500.9844,96.8438 C1500.6875,96.8438 1500.4844,96.9375 1500.2656,97.25 L1500.0938,97.1719 Z " fill="#000000"/><text fill="#000000" font-family="sans-serif" font-size="12" lengthAdjust="spacing" textLength="138" x="1518.25" y="105.6543">MetaModellComponent</text><line style="stroke:#A80036;stroke-width:1.5;" x1="1423.5" x2="1718.5" y1="117.5" y2="117.5"/><ellipse cx="1433.5" cy="128.5" rx="3" ry="3" style="stroke:#038048;stroke-width:1.0;fill:none;"/><text fill="#000000" font-family="sans-serif" font-size="11" lengthAdjust="spacing" textLength="271" x="1442.5" y="131.7104">ctrl: MetaModellController: MetaModellController</text><line style="stroke:#A80036;stroke-width:1.5;" x1="1423.5" x2="1718.5" y1="138.3047" y2="138.3047"/><ellipse cx="1433.5" cy="149.3047" fill="#84BE84" rx="3" ry="3" style="stroke:#038048;stroke-width:1.0;"/><text fill="#000000" font-family="sans-serif" font-size="11" lengthAdjust="spacing" textLength="123" x="1442.5" y="152.5151">render(): JSX.Element</text><!--MD5=[6161be5bdfdbcd6bfb89d593ab3aeb99]
class MetaModellController--><rect codeLine="61" fill="#FEFECE" filter="url(#f1pzvxg61dd2ru)" height="73.6094" id="MetaModellController" style="stroke:#A80036;stroke-width:1.5;" width="308" x="1826" y="323.5"/><ellipse cx="1911.75" cy="339.5" fill="#ADD1B2" rx="11" ry="11" style="stroke:#A80036;stroke-width:1.0;"/><path d="M1914.0938,335.1719 C1913.1563,334.7344 1912.5625,334.5938 1911.6875,334.5938 C1909.0625,334.5938 1907.0625,336.6719 1907.0625,339.3906 L1907.0625,340.5156 C1907.0625,343.0938 1909.1719,344.9844 1912.0625,344.9844 C1913.2813,344.9844 1914.4375,344.6875 1915.1875,344.1406 C1915.7656,343.7344 1916.0938,343.2813 1916.0938,342.8906 C1916.0938,342.4375 1915.7031,342.0469 1915.2344,342.0469 C1915.0156,342.0469 1914.8125,342.125 1914.625,342.3125 C1914.1719,342.7969 1914.1719,342.7969 1913.9844,342.8906 C1913.5625,343.1563 1912.875,343.2813 1912.1094,343.2813 C1910.0625,343.2813 1908.7656,342.1875 1908.7656,340.4844 L1908.7656,339.3906 C1908.7656,337.6094 1910.0156,336.2969 1911.75,336.2969 C1912.3281,336.2969 1912.9375,336.4531 1913.4063,336.7031 C1913.8906,336.9844 1914.0625,337.2031 1914.1563,337.6094 C1914.2188,338.0156 1914.25,338.1406 1914.3906,338.2656 C1914.5313,338.4063 1914.7656,338.5156 1914.9844,338.5156 C1915.25,338.5156 1915.5156,338.375 1915.6875,338.1563 C1915.7969,338 1915.8281,337.8125 1915.8281,337.3906 L1915.8281,335.9688 C1915.8281,335.5313 1915.8125,335.4063 1915.7188,335.25 C1915.5625,334.9844 1915.2813,334.8438 1914.9844,334.8438 C1914.6875,334.8438 1914.4844,334.9375 1914.2656,335.25 L1914.0938,335.1719 Z " fill="#000000"/><text fill="#000000" font-family="sans-serif" font-size="12" lengthAdjust="spacing" textLength="128" x="1932.25" y="343.6543">MetaModellController</text><line style="stroke:#A80036;stroke-width:1.5;" x1="1827" x2="2133" y1="355.5" y2="355.5"/><ellipse cx="1837" cy="366.5" rx="3" ry="3" style="stroke:#038048;stroke-width:1.0;fill:none;"/><text fill="#000000" font-family="sans-serif" font-size="11" lengthAdjust="spacing" textLength="282" x="1846" y="369.7104">projekthandbuchService: ProjekthandbuchService</text><line style="stroke:#A80036;stroke-width:1.5;" x1="1827" x2="2133" y1="376.3047" y2="376.3047"/><ellipse cx="1837" cy="387.3047" fill="#84BE84" rx="3" ry="3" style="stroke:#038048;stroke-width:1.0;"/><text fill="#000000" font-family="sans-serif" font-size="11" lengthAdjust="spacing" textLength="267" x="1846" y="390.5151">changeMetaModel(mataModelId: number): void</text><!--MD5=[67a5c34ac627909a2f4b52c46f0bd201]
class ProjekttypComponent--><rect codeLine="67" fill="#FEFECE" filter="url(#f1pzvxg61dd2ru)" height="112.0234" id="ProjekttypComponent" style="stroke:#A80036;stroke-width:1.5;" width="200" x="375" y="66.5"/><ellipse cx="407.55" cy="82.5" fill="#ADD1B2" rx="11" ry="11" style="stroke:#A80036;stroke-width:1.0;"/><path d="M409.8938,78.1719 C408.9563,77.7344 408.3625,77.5938 407.4875,77.5938 C404.8625,77.5938 402.8625,79.6719 402.8625,82.3906 L402.8625,83.5156 C402.8625,86.0938 404.9719,87.9844 407.8625,87.9844 C409.0813,87.9844 410.2375,87.6875 410.9875,87.1406 C411.5656,86.7344 411.8938,86.2813 411.8938,85.8906 C411.8938,85.4375 411.5031,85.0469 411.0344,85.0469 C410.8156,85.0469 410.6125,85.125 410.425,85.3125 C409.9719,85.7969 409.9719,85.7969 409.7844,85.8906 C409.3625,86.1563 408.675,86.2813 407.9094,86.2813 C405.8625,86.2813 404.5656,85.1875 404.5656,83.4844 L404.5656,82.3906 C404.5656,80.6094 405.8156,79.2969 407.55,79.2969 C408.1281,79.2969 408.7375,79.4531 409.2063,79.7031 C409.6906,79.9844 409.8625,80.2031 409.9563,80.6094 C410.0188,81.0156 410.05,81.1406 410.1906,81.2656 C410.3313,81.4063 410.5656,81.5156 410.7844,81.5156 C411.05,81.5156 411.3156,81.375 411.4875,81.1563 C411.5969,81 411.6281,80.8125 411.6281,80.3906 L411.6281,78.9688 C411.6281,78.5313 411.6125,78.4063 411.5188,78.25 C411.3625,77.9844 411.0813,77.8438 410.7844,77.8438 C410.4875,77.8438 410.2844,77.9375 410.0656,78.25 L409.8938,78.1719 Z " fill="#000000"/><text fill="#000000" font-family="sans-serif" font-size="12" lengthAdjust="spacing" textLength="129" x="425.45" y="86.6543">ProjekttypComponent</text><line style="stroke:#A80036;stroke-width:1.5;" x1="376" x2="574" y1="98.5" y2="98.5"/><ellipse cx="386" cy="109.5" rx="3" ry="3" style="stroke:#038048;stroke-width:1.0;fill:none;"/><text fill="#000000" font-family="sans-serif" font-size="11" lengthAdjust="spacing" textLength="135" x="395" y="112.7104">ctrl: ProjekttypController</text><line style="stroke:#A80036;stroke-width:1.5;" x1="376" x2="574" y1="119.3047" y2="119.3047"/><ellipse cx="386" cy="130.3047" fill="#84BE84" rx="3" ry="3" style="stroke:#038048;stroke-width:1.0;"/><text fill="#000000" font-family="sans-serif" font-size="11" lengthAdjust="spacing" textLength="158" x="395" y="133.5151">constructor(props: unknown)</text><ellipse cx="386" cy="143.1094" fill="#84BE84" rx="3" ry="3" style="stroke:#038048;stroke-width:1.0;"/><text fill="#000000" font-family="sans-serif" font-size="11" lengthAdjust="spacing" textLength="156" x="395" y="146.3198">componentDidMount(): void</text><ellipse cx="386" cy="155.9141" fill="#84BE84" rx="3" ry="3" style="stroke:#038048;stroke-width:1.0;"/><text fill="#000000" font-family="sans-serif" font-size="11" lengthAdjust="spacing" textLength="174" x="395" y="159.1245">componentWillUnmount(): void</text><ellipse cx="386" cy="168.7188" fill="#84BE84" rx="3" ry="3" style="stroke:#038048;stroke-width:1.0;"/><text fill="#000000" font-family="sans-serif" font-size="11" lengthAdjust="spacing" textLength="123" x="395" y="171.9292">render(): JSX.Element</text><!--MD5=[7734720408830deefe60599827c547d2]
class ProjekttypController--><rect codeLine="78" fill="#FEFECE" filter="url(#f1pzvxg61dd2ru)" height="163.2422" id="ProjekttypController" style="stroke:#A80036;stroke-width:1.5;" width="373" x="235.5" y="279"/><ellipse cx="358.25" cy="295" fill="#ADD1B2" rx="11" ry="11" style="stroke:#A80036;stroke-width:1.0;"/><path d="M360.5938,290.6719 C359.6563,290.2344 359.0625,290.0938 358.1875,290.0938 C355.5625,290.0938 353.5625,292.1719 353.5625,294.8906 L353.5625,296.0156 C353.5625,298.5938 355.6719,300.4844 358.5625,300.4844 C359.7813,300.4844 360.9375,300.1875 361.6875,299.6406 C362.2656,299.2344 362.5938,298.7813 362.5938,298.3906 C362.5938,297.9375 362.2031,297.5469 361.7344,297.5469 C361.5156,297.5469 361.3125,297.625 361.125,297.8125 C360.6719,298.2969 360.6719,298.2969 360.4844,298.3906 C360.0625,298.6563 359.375,298.7813 358.6094,298.7813 C356.5625,298.7813 355.2656,297.6875 355.2656,295.9844 L355.2656,294.8906 C355.2656,293.1094 356.5156,291.7969 358.25,291.7969 C358.8281,291.7969 359.4375,291.9531 359.9063,292.2031 C360.3906,292.4844 360.5625,292.7031 360.6563,293.1094 C360.7188,293.5156 360.75,293.6406 360.8906,293.7656 C361.0313,293.9063 361.2656,294.0156 361.4844,294.0156 C361.75,294.0156 362.0156,293.875 362.1875,293.6563 C362.2969,293.5 362.3281,293.3125 362.3281,292.8906 L362.3281,291.4688 C362.3281,291.0313 362.3125,290.9063 362.2188,290.75 C362.0625,290.4844 361.7813,290.3438 361.4844,290.3438 C361.1875,290.3438 360.9844,290.4375 360.7656,290.75 L360.5938,290.6719 Z " fill="#000000"/><text fill="#000000" font-family="sans-serif" font-size="12" lengthAdjust="spacing" textLength="119" x="378.75" y="299.1543">ProjekttypController</text><line style="stroke:#A80036;stroke-width:1.5;" x1="236.5" x2="607.5" y1="311" y2="311"/><ellipse cx="246.5" cy="322" rx="3" ry="3" style="stroke:#038048;stroke-width:1.0;fill:none;"/><text fill="#000000" font-family="sans-serif" font-size="11" lengthAdjust="spacing" textLength="282" x="255.5" y="325.2104">projekthandbuchService: ProjekthandbuchService</text><rect fill="none" height="6" style="stroke:#C82930;stroke-width:1.0;" width="6" x="243.5" y="331.8047"/><text fill="#000000" font-family="sans-serif" font-size="11" lengthAdjust="spacing" textLength="92" x="255.5" y="338.0151">render: Function</text><ellipse cx="246.5" cy="347.6094" rx="3" ry="3" style="stroke:#038048;stroke-width:1.0;fill:none;"/><text fill="#000000" font-family="sans-serif" font-size="11" lengthAdjust="spacing" textLength="196" x="255.5" y="350.8198">projectTypes: Array&lt;ProjectType&gt;</text><ellipse cx="246.5" cy="360.4141" rx="3" ry="3" style="stroke:#038048;stroke-width:1.0;fill:none;"/><text fill="#000000" font-family="sans-serif" font-size="11" lengthAdjust="spacing" textLength="285" x="255.5" y="363.6245">metaModelSubscription: Subscription: Subscription</text><line style="stroke:#A80036;stroke-width:1.5;" x1="236.5" x2="607.5" y1="370.2188" y2="370.2188"/><ellipse cx="246.5" cy="381.2188" fill="#84BE84" rx="3" ry="3" style="stroke:#038048;stroke-width:1.0;"/><text fill="#000000" font-family="sans-serif" font-size="11" lengthAdjust="spacing" textLength="162" x="255.5" y="384.4292">constructor(render: Function)</text><ellipse cx="246.5" cy="394.0234" fill="#84BE84" rx="3" ry="3" style="stroke:#038048;stroke-width:1.0;"/><text fill="#000000" font-family="sans-serif" font-size="11" lengthAdjust="spacing" textLength="70" x="255.5" y="397.2339">onInit(): void</text><ellipse cx="246.5" cy="406.8281" fill="#84BE84" rx="3" ry="3" style="stroke:#038048;stroke-width:1.0;"/><text fill="#000000" font-family="sans-serif" font-size="11" lengthAdjust="spacing" textLength="98" x="255.5" y="410.0386">onDestroy(): void</text><ellipse cx="246.5" cy="419.6328" fill="#84BE84" rx="3" ry="3" style="stroke:#038048;stroke-width:1.0;"/><text fill="#000000" font-family="sans-serif" font-size="11" lengthAdjust="spacing" textLength="347" x="255.5" y="422.8433">getProjectTypes(metaModelId: number): Array&lt;ProjectType&gt;</text><ellipse cx="246.5" cy="432.4375" fill="#84BE84" rx="3" ry="3" style="stroke:#038048;stroke-width:1.0;"/><text fill="#000000" font-family="sans-serif" font-size="11" lengthAdjust="spacing" textLength="277" x="255.5" y="435.6479">changeProjectType(projectTypeId: number): void</text><!--MD5=[c74b8768c2bf8bce0a3876031eedb4b2]
class ProjekttypvarianteComponent--><rect codeLine="91" fill="#FEFECE" filter="url(#f1pzvxg61dd2ru)" height="112.0234" id="ProjekttypvarianteComponent" style="stroke:#A80036;stroke-width:1.5;" width="209" x="1032.5" y="66.5"/><ellipse cx="1047.5" cy="82.5" fill="#ADD1B2" rx="11" ry="11" style="stroke:#A80036;stroke-width:1.0;"/><path d="M1049.8438,78.1719 C1048.9063,77.7344 1048.3125,77.5938 1047.4375,77.5938 C1044.8125,77.5938 1042.8125,79.6719 1042.8125,82.3906 L1042.8125,83.5156 C1042.8125,86.0938 1044.9219,87.9844 1047.8125,87.9844 C1049.0313,87.9844 1050.1875,87.6875 1050.9375,87.1406 C1051.5156,86.7344 1051.8438,86.2813 1051.8438,85.8906 C1051.8438,85.4375 1051.4531,85.0469 1050.9844,85.0469 C1050.7656,85.0469 1050.5625,85.125 1050.375,85.3125 C1049.9219,85.7969 1049.9219,85.7969 1049.7344,85.8906 C1049.3125,86.1563 1048.625,86.2813 1047.8594,86.2813 C1045.8125,86.2813 1044.5156,85.1875 1044.5156,83.4844 L1044.5156,82.3906 C1044.5156,80.6094 1045.7656,79.2969 1047.5,79.2969 C1048.0781,79.2969 1048.6875,79.4531 1049.1563,79.7031 C1049.6406,79.9844 1049.8125,80.2031 1049.9063,80.6094 C1049.9688,81.0156 1050,81.1406 1050.1406,81.2656 C1050.2813,81.4063 1050.5156,81.5156 1050.7344,81.5156 C1051,81.5156 1051.2656,81.375 1051.4375,81.1563 C1051.5469,81 1051.5781,80.8125 1051.5781,80.3906 L1051.5781,78.9688 C1051.5781,78.5313 1051.5625,78.4063 1051.4688,78.25 C1051.3125,77.9844 1051.0313,77.8438 1050.7344,77.8438 C1050.4375,77.8438 1050.2344,77.9375 1050.0156,78.25 L1049.8438,78.1719 Z " fill="#000000"/><text fill="#000000" font-family="sans-serif" font-size="12" lengthAdjust="spacing" textLength="177" x="1061.5" y="86.6543">ProjekttypvarianteComponent</text><line style="stroke:#A80036;stroke-width:1.5;" x1="1033.5" x2="1240.5" y1="98.5" y2="98.5"/><ellipse cx="1043.5" cy="109.5" rx="3" ry="3" style="stroke:#038048;stroke-width:1.0;fill:none;"/><text fill="#000000" font-family="sans-serif" font-size="11" lengthAdjust="spacing" textLength="182" x="1052.5" y="112.7104">ctrl: ProjekttypvarianteController</text><line style="stroke:#A80036;stroke-width:1.5;" x1="1033.5" x2="1240.5" y1="119.3047" y2="119.3047"/><ellipse cx="1043.5" cy="130.3047" fill="#84BE84" rx="3" ry="3" style="stroke:#038048;stroke-width:1.0;"/><text fill="#000000" font-family="sans-serif" font-size="11" lengthAdjust="spacing" textLength="158" x="1052.5" y="133.5151">constructor(props: unknown)</text><ellipse cx="1043.5" cy="143.1094" fill="#84BE84" rx="3" ry="3" style="stroke:#038048;stroke-width:1.0;"/><text fill="#000000" font-family="sans-serif" font-size="11" lengthAdjust="spacing" textLength="156" x="1052.5" y="146.3198">componentDidMount(): void</text><ellipse cx="1043.5" cy="155.9141" fill="#84BE84" rx="3" ry="3" style="stroke:#038048;stroke-width:1.0;"/><text fill="#000000" font-family="sans-serif" font-size="11" lengthAdjust="spacing" textLength="174" x="1052.5" y="159.1245">componentWillUnmount(): void</text><ellipse cx="1043.5" cy="168.7188" fill="#84BE84" rx="3" ry="3" style="stroke:#038048;stroke-width:1.0;"/><text fill="#000000" font-family="sans-serif" font-size="11" lengthAdjust="spacing" textLength="123" x="1052.5" y="171.9292">render(): JSX.Element</text><!--MD5=[90f2f177721b3a1975db402bd5e5178a]
class ProjekttypvarianteController--><rect codeLine="102" fill="#FEFECE" filter="url(#f1pzvxg61dd2ru)" height="163.2422" id="ProjekttypvarianteController" style="stroke:#A80036;stroke-width:1.5;" width="457" x="795.5" y="279"/><ellipse cx="936.25" cy="295" fill="#ADD1B2" rx="11" ry="11" style="stroke:#A80036;stroke-width:1.0;"/><path d="M938.5938,290.6719 C937.6563,290.2344 937.0625,290.0938 936.1875,290.0938 C933.5625,290.0938 931.5625,292.1719 931.5625,294.8906 L931.5625,296.0156 C931.5625,298.5938 933.6719,300.4844 936.5625,300.4844 C937.7813,300.4844 938.9375,300.1875 939.6875,299.6406 C940.2656,299.2344 940.5938,298.7813 940.5938,298.3906 C940.5938,297.9375 940.2031,297.5469 939.7344,297.5469 C939.5156,297.5469 939.3125,297.625 939.125,297.8125 C938.6719,298.2969 938.6719,298.2969 938.4844,298.3906 C938.0625,298.6563 937.375,298.7813 936.6094,298.7813 C934.5625,298.7813 933.2656,297.6875 933.2656,295.9844 L933.2656,294.8906 C933.2656,293.1094 934.5156,291.7969 936.25,291.7969 C936.8281,291.7969 937.4375,291.9531 937.9063,292.2031 C938.3906,292.4844 938.5625,292.7031 938.6563,293.1094 C938.7188,293.5156 938.75,293.6406 938.8906,293.7656 C939.0313,293.9063 939.2656,294.0156 939.4844,294.0156 C939.75,294.0156 940.0156,293.875 940.1875,293.6563 C940.2969,293.5 940.3281,293.3125 940.3281,292.8906 L940.3281,291.4688 C940.3281,291.0313 940.3125,290.9063 940.2188,290.75 C940.0625,290.4844 939.7813,290.3438 939.4844,290.3438 C939.1875,290.3438 938.9844,290.4375 938.7656,290.75 L938.5938,290.6719 Z " fill="#000000"/><text fill="#000000" font-family="sans-serif" font-size="12" lengthAdjust="spacing" textLength="167" x="956.75" y="299.1543">ProjekttypvarianteController</text><line style="stroke:#A80036;stroke-width:1.5;" x1="796.5" x2="1251.5" y1="311" y2="311"/><ellipse cx="806.5" cy="322" rx="3" ry="3" style="stroke:#038048;stroke-width:1.0;fill:none;"/><text fill="#000000" font-family="sans-serif" font-size="11" lengthAdjust="spacing" textLength="282" x="815.5" y="325.2104">projekthandbuchService: ProjekthandbuchService</text><rect fill="none" height="6" style="stroke:#C82930;stroke-width:1.0;" width="6" x="803.5" y="331.8047"/><text fill="#000000" font-family="sans-serif" font-size="11" lengthAdjust="spacing" textLength="92" x="815.5" y="338.0151">render: Function</text><ellipse cx="806.5" cy="347.6094" rx="3" ry="3" style="stroke:#038048;stroke-width:1.0;fill:none;"/><text fill="#000000" font-family="sans-serif" font-size="11" lengthAdjust="spacing" textLength="276" x="815.5" y="350.8198">projectTypeVariants: Array&lt;ProjectTypeVariant&gt;</text><ellipse cx="806.5" cy="360.4141" rx="3" ry="3" style="stroke:#038048;stroke-width:1.0;fill:none;"/><text fill="#000000" font-family="sans-serif" font-size="11" lengthAdjust="spacing" textLength="289" x="815.5" y="363.6245">projectTypeSubscription: Subscription: Subscription</text><line style="stroke:#A80036;stroke-width:1.5;" x1="796.5" x2="1251.5" y1="370.2188" y2="370.2188"/><ellipse cx="806.5" cy="381.2188" fill="#84BE84" rx="3" ry="3" style="stroke:#038048;stroke-width:1.0;"/><text fill="#000000" font-family="sans-serif" font-size="11" lengthAdjust="spacing" textLength="162" x="815.5" y="384.4292">constructor(render: Function)</text><ellipse cx="806.5" cy="394.0234" fill="#84BE84" rx="3" ry="3" style="stroke:#038048;stroke-width:1.0;"/><text fill="#000000" font-family="sans-serif" font-size="11" lengthAdjust="spacing" textLength="70" x="815.5" y="397.2339">onInit(): void</text><ellipse cx="806.5" cy="406.8281" fill="#84BE84" rx="3" ry="3" style="stroke:#038048;stroke-width:1.0;"/><text fill="#000000" font-family="sans-serif" font-size="11" lengthAdjust="spacing" textLength="98" x="815.5" y="410.0386">onDestroy(): void</text><ellipse cx="806.5" cy="419.6328" fill="#84BE84" rx="3" ry="3" style="stroke:#038048;stroke-width:1.0;"/><text fill="#000000" font-family="sans-serif" font-size="11" lengthAdjust="spacing" textLength="431" x="815.5" y="422.8433">getProjectTypeVariants(projectTypeId: number): Array&lt;ProjectTypeVariant&gt;</text><ellipse cx="806.5" cy="432.4375" fill="#84BE84" rx="3" ry="3" style="stroke:#038048;stroke-width:1.0;"/><text fill="#000000" font-family="sans-serif" font-size="11" lengthAdjust="spacing" textLength="357" x="815.5" y="435.6479">changeProjectTypeVariant(projectTypeVariantId: number): void</text><!--MD5=[7ec6c25005e06e90aaa6ddd48a44a52a]
class JSX.Element--><rect fill="#FEFECE" filter="url(#f1pzvxg61dd2ru)" height="48" id="JSX.Element" style="stroke:#A80036;stroke-width:1.5;" width="80" x="1457" y="336.5"/><ellipse cx="1472" cy="352.5" fill="#ADD1B2" rx="11" ry="11" style="stroke:#A80036;stroke-width:1.0;"/><path d="M1474.3438,348.1719 C1473.4063,347.7344 1472.8125,347.5938 1471.9375,347.5938 C1469.3125,347.5938 1467.3125,349.6719 1467.3125,352.3906 L1467.3125,353.5156 C1467.3125,356.0938 1469.4219,357.9844 1472.3125,357.9844 C1473.5313,357.9844 1474.6875,357.6875 1475.4375,357.1406 C1476.0156,356.7344 1476.3438,356.2813 1476.3438,355.8906 C1476.3438,355.4375 1475.9531,355.0469 1475.4844,355.0469 C1475.2656,355.0469 1475.0625,355.125 1474.875,355.3125 C1474.4219,355.7969 1474.4219,355.7969 1474.2344,355.8906 C1473.8125,356.1563 1473.125,356.2813 1472.3594,356.2813 C1470.3125,356.2813 1469.0156,355.1875 1469.0156,353.4844 L1469.0156,352.3906 C1469.0156,350.6094 1470.2656,349.2969 1472,349.2969 C1472.5781,349.2969 1473.1875,349.4531 1473.6563,349.7031 C1474.1406,349.9844 1474.3125,350.2031 1474.4063,350.6094 C1474.4688,351.0156 1474.5,351.1406 1474.6406,351.2656 C1474.7813,351.4063 1475.0156,351.5156 1475.2344,351.5156 C1475.5,351.5156 1475.7656,351.375 1475.9375,351.1563 C1476.0469,351 1476.0781,350.8125 1476.0781,350.3906 L1476.0781,348.9688 C1476.0781,348.5313 1476.0625,348.4063 1475.9688,348.25 C1475.8125,347.9844 1475.5313,347.8438 1475.2344,347.8438 C1474.9375,347.8438 1474.7344,347.9375 1474.5156,348.25 L1474.3438,348.1719 Z " fill="#000000"/><text fill="#000000" font-family="sans-serif" font-size="12" lengthAdjust="spacing" textLength="48" x="1486" y="356.6543">Element</text><line style="stroke:#A80036;stroke-width:1.5;" x1="1458" x2="1536" y1="368.5" y2="368.5"/><line style="stroke:#A80036;stroke-width:1.5;" x1="1458" x2="1536" y1="376.5" y2="376.5"/><!--MD5=[7f1029a1d195ff487557602559e62f39]
class ReactComponent--><rect fill="#FEFECE" filter="url(#f1pzvxg61dd2ru)" height="48" id="ReactComponent" style="stroke:#A80036;stroke-width:1.5;" width="134" x="1288" y="336.5"/><ellipse cx="1303" cy="352.5" fill="#ADD1B2" rx="11" ry="11" style="stroke:#A80036;stroke-width:1.0;"/><path d="M1305.3438,348.1719 C1304.4063,347.7344 1303.8125,347.5938 1302.9375,347.5938 C1300.3125,347.5938 1298.3125,349.6719 1298.3125,352.3906 L1298.3125,353.5156 C1298.3125,356.0938 1300.4219,357.9844 1303.3125,357.9844 C1304.5313,357.9844 1305.6875,357.6875 1306.4375,357.1406 C1307.0156,356.7344 1307.3438,356.2813 1307.3438,355.8906 C1307.3438,355.4375 1306.9531,355.0469 1306.4844,355.0469 C1306.2656,355.0469 1306.0625,355.125 1305.875,355.3125 C1305.4219,355.7969 1305.4219,355.7969 1305.2344,355.8906 C1304.8125,356.1563 1304.125,356.2813 1303.3594,356.2813 C1301.3125,356.2813 1300.0156,355.1875 1300.0156,353.4844 L1300.0156,352.3906 C1300.0156,350.6094 1301.2656,349.2969 1303,349.2969 C1303.5781,349.2969 1304.1875,349.4531 1304.6563,349.7031 C1305.1406,349.9844 1305.3125,350.2031 1305.4063,350.6094 C1305.4688,351.0156 1305.5,351.1406 1305.6406,351.2656 C1305.7813,351.4063 1306.0156,351.5156 1306.2344,351.5156 C1306.5,351.5156 1306.7656,351.375 1306.9375,351.1563 C1307.0469,351 1307.0781,350.8125 1307.0781,350.3906 L1307.0781,348.9688 C1307.0781,348.5313 1307.0625,348.4063 1306.9688,348.25 C1306.8125,347.9844 1306.5313,347.8438 1306.2344,347.8438 C1305.9375,347.8438 1305.7344,347.9375 1305.5156,348.25 L1305.3438,348.1719 Z " fill="#000000"/><text fill="#000000" font-family="sans-serif" font-size="12" lengthAdjust="spacing" textLength="102" x="1317" y="356.6543">ReactComponent</text><line style="stroke:#A80036;stroke-width:1.5;" x1="1289" x2="1421" y1="368.5" y2="368.5"/><line style="stroke:#A80036;stroke-width:1.5;" x1="1289" x2="1421" y1="376.5" y2="376.5"/><!--MD5=[2f2dc5b1f3db591998473aa1c8a80a2b]
class GenericComponent--><rect codeLine="154" fill="#FEFECE" filter="url(#f1pzvxg61dd2ru)" height="48" id="GenericComponent" style="stroke:#A80036;stroke-width:1.5;" width="148" x="1572" y="336.5"/><ellipse cx="1587" cy="352.5" fill="#B4A7E5" rx="11" ry="11" style="stroke:#A80036;stroke-width:1.0;"/><path d="M1587.9531,349.2813 L1589.6719,349.2813 C1590.0625,349.2813 1590.25,349.25 1590.375,349.1719 C1590.6406,349.0156 1590.7813,348.7344 1590.7813,348.4375 C1590.7813,348.1719 1590.6719,347.9063 1590.4375,347.7344 C1590.2656,347.625 1590.125,347.5938 1589.6719,347.5938 L1584.5313,347.5938 C1584.0938,347.5938 1583.9688,347.6094 1583.8125,347.7031 C1583.5625,347.8594 1583.4063,348.1563 1583.4063,348.4375 C1583.4063,348.7188 1583.5469,348.9688 1583.7656,349.1406 C1583.9219,349.25 1584.1094,349.2813 1584.5313,349.2813 L1586.25,349.2813 L1586.25,355.7969 L1584.5313,355.7969 C1584.0938,355.7969 1583.9688,355.8125 1583.8125,355.9219 C1583.5625,356.0781 1583.4063,356.3594 1583.4063,356.6563 C1583.4063,356.9063 1583.5469,357.1719 1583.7656,357.3281 C1583.9219,357.4531 1584.125,357.5 1584.5313,357.5 L1589.6719,357.5 C1590.4219,357.5 1590.7813,357.2188 1590.7813,356.6563 C1590.7813,356.375 1590.6719,356.125 1590.4375,355.9531 C1590.2656,355.8281 1590.125,355.7969 1589.6719,355.7969 L1587.9531,355.7969 L1587.9531,349.2813 Z " fill="#000000"/><text fill="#000000" font-family="sans-serif" font-size="12" font-style="italic" lengthAdjust="spacing" textLength="116" x="1601" y="356.6543">GenericComponent</text><line style="stroke:#A80036;stroke-width:1.5;" x1="1573" x2="1719" y1="368.5" y2="368.5"/><line style="stroke:#A80036;stroke-width:1.5;" x1="1573" x2="1719" y1="376.5" y2="376.5"/><!--MD5=[545507b7baa8aade59e57dce916f0187]
class Subscription--><rect fill="#FEFECE" filter="url(#f1pzvxg61dd2ru)" height="48" id="Subscription" style="stroke:#A80036;stroke-width:1.5;" width="107" x="889.5" y="574.5"/><ellipse cx="904.5" cy="590.5" fill="#ADD1B2" rx="11" ry="11" style="stroke:#A80036;stroke-width:1.0;"/><path d="M906.8438,586.1719 C905.9063,585.7344 905.3125,585.5938 904.4375,585.5938 C901.8125,585.5938 899.8125,587.6719 899.8125,590.3906 L899.8125,591.5156 C899.8125,594.0938 901.9219,595.9844 904.8125,595.9844 C906.0313,595.9844 907.1875,595.6875 907.9375,595.1406 C908.5156,594.7344 908.8438,594.2813 908.8438,593.8906 C908.8438,593.4375 908.4531,593.0469 907.9844,593.0469 C907.7656,593.0469 907.5625,593.125 907.375,593.3125 C906.9219,593.7969 906.9219,593.7969 906.7344,593.8906 C906.3125,594.1563 905.625,594.2813 904.8594,594.2813 C902.8125,594.2813 901.5156,593.1875 901.5156,591.4844 L901.5156,590.3906 C901.5156,588.6094 902.7656,587.2969 904.5,587.2969 C905.0781,587.2969 905.6875,587.4531 906.1563,587.7031 C906.6406,587.9844 906.8125,588.2031 906.9063,588.6094 C906.9688,589.0156 907,589.1406 907.1406,589.2656 C907.2813,589.4063 907.5156,589.5156 907.7344,589.5156 C908,589.5156 908.2656,589.375 908.4375,589.1563 C908.5469,589 908.5781,588.8125 908.5781,588.3906 L908.5781,586.9688 C908.5781,586.5313 908.5625,586.4063 908.4688,586.25 C908.3125,585.9844 908.0313,585.8438 907.7344,585.8438 C907.4375,585.8438 907.2344,585.9375 907.0156,586.25 L906.8438,586.1719 Z " fill="#000000"/><text fill="#000000" font-family="sans-serif" font-size="12" lengthAdjust="spacing" textLength="75" x="918.5" y="594.6543">Subscription</text><line style="stroke:#A80036;stroke-width:1.5;" x1="890.5" x2="995.5" y1="606.5" y2="606.5"/><line style="stroke:#A80036;stroke-width:1.5;" x1="890.5" x2="995.5" y1="614.5" y2="614.5"/><!--MD5=[3a2ec221e2a1740078e15f24d6977d2b]
class ProjectFeature--><rect fill="#FEFECE" filter="url(#f1pzvxg61dd2ru)" height="48" id="ProjectFeature" style="stroke:#A80036;stroke-width:1.5;" width="119" x="3133.5" y="740"/><ellipse cx="3148.5" cy="756" fill="#ADD1B2" rx="11" ry="11" style="stroke:#A80036;stroke-width:1.0;"/><path d="M3150.8438,751.6719 C3149.9063,751.2344 3149.3125,751.0938 3148.4375,751.0938 C3145.8125,751.0938 3143.8125,753.1719 3143.8125,755.8906 L3143.8125,757.0156 C3143.8125,759.5938 3145.9219,761.4844 3148.8125,761.4844 C3150.0313,761.4844 3151.1875,761.1875 3151.9375,760.6406 C3152.5156,760.2344 3152.8438,759.7813 3152.8438,759.3906 C3152.8438,758.9375 3152.4531,758.5469 3151.9844,758.5469 C3151.7656,758.5469 3151.5625,758.625 3151.375,758.8125 C3150.9219,759.2969 3150.9219,759.2969 3150.7344,759.3906 C3150.3125,759.6563 3149.625,759.7813 3148.8594,759.7813 C3146.8125,759.7813 3145.5156,758.6875 3145.5156,756.9844 L3145.5156,755.8906 C3145.5156,754.1094 3146.7656,752.7969 3148.5,752.7969 C3149.0781,752.7969 3149.6875,752.9531 3150.1563,753.2031 C3150.6406,753.4844 3150.8125,753.7031 3150.9063,754.1094 C3150.9688,754.5156 3151,754.6406 3151.1406,754.7656 C3151.2813,754.9063 3151.5156,755.0156 3151.7344,755.0156 C3152,755.0156 3152.2656,754.875 3152.4375,754.6563 C3152.5469,754.5 3152.5781,754.3125 3152.5781,753.8906 L3152.5781,752.4688 C3152.5781,752.0313 3152.5625,751.9063 3152.4688,751.75 C3152.3125,751.4844 3152.0313,751.3438 3151.7344,751.3438 C3151.4375,751.3438 3151.2344,751.4375 3151.0156,751.75 L3150.8438,751.6719 Z " fill="#000000"/><text fill="#000000" font-family="sans-serif" font-size="12" lengthAdjust="spacing" textLength="87" x="3162.5" y="760.1543">ProjectFeature</text><line style="stroke:#A80036;stroke-width:1.5;" x1="3134.5" x2="3251.5" y1="772" y2="772"/><line style="stroke:#A80036;stroke-width:1.5;" x1="3134.5" x2="3251.5" y1="780" y2="780"/><!--MD5=[c8f8358d41a1c595b99510f2374ca8ba]
class AbstractController--><rect fill="#FEFECE" filter="url(#f1pzvxg61dd2ru)" height="48" id="AbstractController" style="stroke:#A80036;stroke-width:1.5;" width="141" x="1786.5" y="574.5"/><ellipse cx="1801.5" cy="590.5" fill="#ADD1B2" rx="11" ry="11" style="stroke:#A80036;stroke-width:1.0;"/><path d="M1803.8438,586.1719 C1802.9063,585.7344 1802.3125,585.5938 1801.4375,585.5938 C1798.8125,585.5938 1796.8125,587.6719 1796.8125,590.3906 L1796.8125,591.5156 C1796.8125,594.0938 1798.9219,595.9844 1801.8125,595.9844 C1803.0313,595.9844 1804.1875,595.6875 1804.9375,595.1406 C1805.5156,594.7344 1805.8438,594.2813 1805.8438,593.8906 C1805.8438,593.4375 1805.4531,593.0469 1804.9844,593.0469 C1804.7656,593.0469 1804.5625,593.125 1804.375,593.3125 C1803.9219,593.7969 1803.9219,593.7969 1803.7344,593.8906 C1803.3125,594.1563 1802.625,594.2813 1801.8594,594.2813 C1799.8125,594.2813 1798.5156,593.1875 1798.5156,591.4844 L1798.5156,590.3906 C1798.5156,588.6094 1799.7656,587.2969 1801.5,587.2969 C1802.0781,587.2969 1802.6875,587.4531 1803.1563,587.7031 C1803.6406,587.9844 1803.8125,588.2031 1803.9063,588.6094 C1803.9688,589.0156 1804,589.1406 1804.1406,589.2656 C1804.2813,589.4063 1804.5156,589.5156 1804.7344,589.5156 C1805,589.5156 1805.2656,589.375 1805.4375,589.1563 C1805.5469,589 1805.5781,588.8125 1805.5781,588.3906 L1805.5781,586.9688 C1805.5781,586.5313 1805.5625,586.4063 1805.4688,586.25 C1805.3125,585.9844 1805.0313,585.8438 1804.7344,585.8438 C1804.4375,585.8438 1804.2344,585.9375 1804.0156,586.25 L1803.8438,586.1719 Z " fill="#000000"/><text fill="#000000" font-family="sans-serif" font-size="12" lengthAdjust="spacing" textLength="109" x="1815.5" y="594.6543">AbstractController</text><line style="stroke:#A80036;stroke-width:1.5;" x1="1787.5" x2="1926.5" y1="606.5" y2="606.5"/><line style="stroke:#A80036;stroke-width:1.5;" x1="1787.5" x2="1926.5" y1="614.5" y2="614.5"/><!--MD5=[13c02065ef0e30db1cfa329a2ccdf298]
class BehaviorSubject--><rect fill="#FEFECE" filter="url(#f1pzvxg61dd2ru)" height="48" id="BehaviorSubject" style="stroke:#A80036;stroke-width:1.5;" width="130" x="1963" y="740"/><ellipse cx="1978" cy="756" fill="#ADD1B2" rx="11" ry="11" style="stroke:#A80036;stroke-width:1.0;"/><path d="M1980.3438,751.6719 C1979.4063,751.2344 1978.8125,751.0938 1977.9375,751.0938 C1975.3125,751.0938 1973.3125,753.1719 1973.3125,755.8906 L1973.3125,757.0156 C1973.3125,759.5938 1975.4219,761.4844 1978.3125,761.4844 C1979.5313,761.4844 1980.6875,761.1875 1981.4375,760.6406 C1982.0156,760.2344 1982.3438,759.7813 1982.3438,759.3906 C1982.3438,758.9375 1981.9531,758.5469 1981.4844,758.5469 C1981.2656,758.5469 1981.0625,758.625 1980.875,758.8125 C1980.4219,759.2969 1980.4219,759.2969 1980.2344,759.3906 C1979.8125,759.6563 1979.125,759.7813 1978.3594,759.7813 C1976.3125,759.7813 1975.0156,758.6875 1975.0156,756.9844 L1975.0156,755.8906 C1975.0156,754.1094 1976.2656,752.7969 1978,752.7969 C1978.5781,752.7969 1979.1875,752.9531 1979.6563,753.2031 C1980.1406,753.4844 1980.3125,753.7031 1980.4063,754.1094 C1980.4688,754.5156 1980.5,754.6406 1980.6406,754.7656 C1980.7813,754.9063 1981.0156,755.0156 1981.2344,755.0156 C1981.5,755.0156 1981.7656,754.875 1981.9375,754.6563 C1982.0469,754.5 1982.0781,754.3125 1982.0781,753.8906 L1982.0781,752.4688 C1982.0781,752.0313 1982.0625,751.9063 1981.9688,751.75 C1981.8125,751.4844 1981.5313,751.3438 1981.2344,751.3438 C1980.9375,751.3438 1980.7344,751.4375 1980.5156,751.75 L1980.3438,751.6719 Z " fill="#000000"/><text fill="#000000" font-family="sans-serif" font-size="12" lengthAdjust="spacing" textLength="98" x="1992" y="760.1543">BehaviorSubject</text><line style="stroke:#A80036;stroke-width:1.5;" x1="1964" x2="2092" y1="772" y2="772"/><line style="stroke:#A80036;stroke-width:1.5;" x1="1964" x2="2092" y1="780" y2="780"/><!--MD5=[c0bd9f44073f1a51428d87d6a9cf071b]
class Observable--><rect fill="#FEFECE" filter="url(#f1pzvxg61dd2ru)" height="48" id="Observable" style="stroke:#A80036;stroke-width:1.5;" width="103" x="2128.5" y="740"/><ellipse cx="2143.5" cy="756" fill="#ADD1B2" rx="11" ry="11" style="stroke:#A80036;stroke-width:1.0;"/><path d="M2145.8438,751.6719 C2144.9063,751.2344 2144.3125,751.0938 2143.4375,751.0938 C2140.8125,751.0938 2138.8125,753.1719 2138.8125,755.8906 L2138.8125,757.0156 C2138.8125,759.5938 2140.9219,761.4844 2143.8125,761.4844 C2145.0313,761.4844 2146.1875,761.1875 2146.9375,760.6406 C2147.5156,760.2344 2147.8438,759.7813 2147.8438,759.3906 C2147.8438,758.9375 2147.4531,758.5469 2146.9844,758.5469 C2146.7656,758.5469 2146.5625,758.625 2146.375,758.8125 C2145.9219,759.2969 2145.9219,759.2969 2145.7344,759.3906 C2145.3125,759.6563 2144.625,759.7813 2143.8594,759.7813 C2141.8125,759.7813 2140.5156,758.6875 2140.5156,756.9844 L2140.5156,755.8906 C2140.5156,754.1094 2141.7656,752.7969 2143.5,752.7969 C2144.0781,752.7969 2144.6875,752.9531 2145.1563,753.2031 C2145.6406,753.4844 2145.8125,753.7031 2145.9063,754.1094 C2145.9688,754.5156 2146,754.6406 2146.1406,754.7656 C2146.2813,754.9063 2146.5156,755.0156 2146.7344,755.0156 C2147,755.0156 2147.2656,754.875 2147.4375,754.6563 C2147.5469,754.5 2147.5781,754.3125 2147.5781,753.8906 L2147.5781,752.4688 C2147.5781,752.0313 2147.5625,751.9063 2147.4688,751.75 C2147.3125,751.4844 2147.0313,751.3438 2146.7344,751.3438 C2146.4375,751.3438 2146.2344,751.4375 2146.0156,751.75 L2145.8438,751.6719 Z " fill="#000000"/><text fill="#000000" font-family="sans-serif" font-size="12" lengthAdjust="spacing" textLength="71" x="2157.5" y="760.1543">Observable</text><line style="stroke:#A80036;stroke-width:1.5;" x1="2129.5" x2="2230.5" y1="772" y2="772"/><line style="stroke:#A80036;stroke-width:1.5;" x1="2129.5" x2="2230.5" y1="780" y2="780"/><!--MD5=[6872a9d54b58379173cee2b028f3c5d7]
class ContainsProductFeatures--><rect fill="#FEFECE" filter="url(#f1pzvxg61dd2ru)" height="48" id="ContainsProductFeatures" style="stroke:#A80036;stroke-width:1.5;" width="181" x="2620.5" y="574.5"/><ellipse cx="2635.5" cy="590.5" fill="#ADD1B2" rx="11" ry="11" style="stroke:#A80036;stroke-width:1.0;"/><path d="M2637.8438,586.1719 C2636.9063,585.7344 2636.3125,585.5938 2635.4375,585.5938 C2632.8125,585.5938 2630.8125,587.6719 2630.8125,590.3906 L2630.8125,591.5156 C2630.8125,594.0938 2632.9219,595.9844 2635.8125,595.9844 C2637.0313,595.9844 2638.1875,595.6875 2638.9375,595.1406 C2639.5156,594.7344 2639.8438,594.2813 2639.8438,593.8906 C2639.8438,593.4375 2639.4531,593.0469 2638.9844,593.0469 C2638.7656,593.0469 2638.5625,593.125 2638.375,593.3125 C2637.9219,593.7969 2637.9219,593.7969 2637.7344,593.8906 C2637.3125,594.1563 2636.625,594.2813 2635.8594,594.2813 C2633.8125,594.2813 2632.5156,593.1875 2632.5156,591.4844 L2632.5156,590.3906 C2632.5156,588.6094 2633.7656,587.2969 2635.5,587.2969 C2636.0781,587.2969 2636.6875,587.4531 2637.1563,587.7031 C2637.6406,587.9844 2637.8125,588.2031 2637.9063,588.6094 C2637.9688,589.0156 2638,589.1406 2638.1406,589.2656 C2638.2813,589.4063 2638.5156,589.5156 2638.7344,589.5156 C2639,589.5156 2639.2656,589.375 2639.4375,589.1563 C2639.5469,589 2639.5781,588.8125 2639.5781,588.3906 L2639.5781,586.9688 C2639.5781,586.5313 2639.5625,586.4063 2639.4688,586.25 C2639.3125,585.9844 2639.0313,585.8438 2638.7344,585.8438 C2638.4375,585.8438 2638.2344,585.9375 2638.0156,586.25 L2637.8438,586.1719 Z " fill="#000000"/><text fill="#000000" font-family="sans-serif" font-size="12" lengthAdjust="spacing" textLength="149" x="2649.5" y="594.6543">ContainsProductFeatures</text><line style="stroke:#A80036;stroke-width:1.5;" x1="2621.5" x2="2800.5" y1="606.5" y2="606.5"/><line style="stroke:#A80036;stroke-width:1.5;" x1="2621.5" x2="2800.5" y1="614.5" y2="614.5"/><!--MD5=[7e621e1fe0059f396c30b89210c998d1]
class ProjectType--><rect fill="#FEFECE" filter="url(#f1pzvxg61dd2ru)" height="48" id="ProjectType" style="stroke:#A80036;stroke-width:1.5;" width="103" x="370.5" y="574.5"/><ellipse cx="385.5" cy="590.5" fill="#ADD1B2" rx="11" ry="11" style="stroke:#A80036;stroke-width:1.0;"/><path d="M387.8438,586.1719 C386.9063,585.7344 386.3125,585.5938 385.4375,585.5938 C382.8125,585.5938 380.8125,587.6719 380.8125,590.3906 L380.8125,591.5156 C380.8125,594.0938 382.9219,595.9844 385.8125,595.9844 C387.0313,595.9844 388.1875,595.6875 388.9375,595.1406 C389.5156,594.7344 389.8438,594.2813 389.8438,593.8906 C389.8438,593.4375 389.4531,593.0469 388.9844,593.0469 C388.7656,593.0469 388.5625,593.125 388.375,593.3125 C387.9219,593.7969 387.9219,593.7969 387.7344,593.8906 C387.3125,594.1563 386.625,594.2813 385.8594,594.2813 C383.8125,594.2813 382.5156,593.1875 382.5156,591.4844 L382.5156,590.3906 C382.5156,588.6094 383.7656,587.2969 385.5,587.2969 C386.0781,587.2969 386.6875,587.4531 387.1563,587.7031 C387.6406,587.9844 387.8125,588.2031 387.9063,588.6094 C387.9688,589.0156 388,589.1406 388.1406,589.2656 C388.2813,589.4063 388.5156,589.5156 388.7344,589.5156 C389,589.5156 389.2656,589.375 389.4375,589.1563 C389.5469,589 389.5781,588.8125 389.5781,588.3906 L389.5781,586.9688 C389.5781,586.5313 389.5625,586.4063 389.4688,586.25 C389.3125,585.9844 389.0313,585.8438 388.7344,585.8438 C388.4375,585.8438 388.2344,585.9375 388.0156,586.25 L387.8438,586.1719 Z " fill="#000000"/><text fill="#000000" font-family="sans-serif" font-size="12" lengthAdjust="spacing" textLength="71" x="399.5" y="594.6543">ProjectType</text><line style="stroke:#A80036;stroke-width:1.5;" x1="371.5" x2="472.5" y1="606.5" y2="606.5"/><line style="stroke:#A80036;stroke-width:1.5;" x1="371.5" x2="472.5" y1="614.5" y2="614.5"/><!--MD5=[21d209c026c2e4949a90cf6aca6303b6]
class ProjectTypeVariant--><rect fill="#FEFECE" filter="url(#f1pzvxg61dd2ru)" height="48" id="ProjectTypeVariant" style="stroke:#A80036;stroke-width:1.5;" width="144" x="1032" y="574.5"/><ellipse cx="1047" cy="590.5" fill="#ADD1B2" rx="11" ry="11" style="stroke:#A80036;stroke-width:1.0;"/><path d="M1049.3438,586.1719 C1048.4063,585.7344 1047.8125,585.5938 1046.9375,585.5938 C1044.3125,585.5938 1042.3125,587.6719 1042.3125,590.3906 L1042.3125,591.5156 C1042.3125,594.0938 1044.4219,595.9844 1047.3125,595.9844 C1048.5313,595.9844 1049.6875,595.6875 1050.4375,595.1406 C1051.0156,594.7344 1051.3438,594.2813 1051.3438,593.8906 C1051.3438,593.4375 1050.9531,593.0469 1050.4844,593.0469 C1050.2656,593.0469 1050.0625,593.125 1049.875,593.3125 C1049.4219,593.7969 1049.4219,593.7969 1049.2344,593.8906 C1048.8125,594.1563 1048.125,594.2813 1047.3594,594.2813 C1045.3125,594.2813 1044.0156,593.1875 1044.0156,591.4844 L1044.0156,590.3906 C1044.0156,588.6094 1045.2656,587.2969 1047,587.2969 C1047.5781,587.2969 1048.1875,587.4531 1048.6563,587.7031 C1049.1406,587.9844 1049.3125,588.2031 1049.4063,588.6094 C1049.4688,589.0156 1049.5,589.1406 1049.6406,589.2656 C1049.7813,589.4063 1050.0156,589.5156 1050.2344,589.5156 C1050.5,589.5156 1050.7656,589.375 1050.9375,589.1563 C1051.0469,589 1051.0781,588.8125 1051.0781,588.3906 L1051.0781,586.9688 C1051.0781,586.5313 1051.0625,586.4063 1050.9688,586.25 C1050.8125,585.9844 1050.5313,585.8438 1050.2344,585.8438 C1049.9375,585.8438 1049.7344,585.9375 1049.5156,586.25 L1049.3438,586.1719 Z " fill="#000000"/><text fill="#000000" font-family="sans-serif" font-size="12" lengthAdjust="spacing" textLength="112" x="1061" y="594.6543">ProjectTypeVariant</text><line style="stroke:#A80036;stroke-width:1.5;" x1="1033" x2="1175" y1="606.5" y2="606.5"/><line style="stroke:#A80036;stroke-width:1.5;" x1="1033" x2="1175" y1="614.5" y2="614.5"/><!--MD5=[b755ef7de896d6fd23dd27e2c64034c3]
link ProjektComponent to ReactComponent--><path codeLine="114" d="M1954.45,159.595 C1895.14,183.926 1812.22,214.039 1736,228 C1703.75,233.907 1469.86,220.429 1441,236 C1408.49,253.54 1385.66,289.372 1371.73,317.943 " fill="none" id="ProjektComponent-to-ReactComponent" style="stroke:#A80036;stroke-width:1.0;"/><polygon fill="none" points="1378.09,320.878,1363.5,336.249,1365.32,315.137,1378.09,320.878" style="stroke:#A80036;stroke-width:1.0;"/><!--MD5=[06919de9cdbcbccdbf8cc63fbb1f7cb8]
link ProjektComponent to GenericComponent--><path codeLine="115" d="M1914.44,155.407 C1859.95,173.441 1796.88,199.767 1747,236 C1710.84,262.269 1680.14,304.491 1662.38,332.118 " fill="none" id="ProjektComponent-to-GenericComponent" style="stroke:#A80036;stroke-width:1.0;stroke-dasharray:7.0,7.0;"/><polygon fill="#A80036" points="1659.64,336.421,1667.8488,330.979,1662.3261,332.2038,1661.1013,326.6812,1659.64,336.421" style="stroke:#A80036;stroke-width:1.0;"/><!--MD5=[fd83052afc56b75b9d913b2ce1467c09]
link ProjektComponent to ProjektController--><path codeLine="117" d="M2139.25,159.6 C2260.76,202.081 2462.19,272.508 2590.66,317.424 " fill="none" id="ProjektComponent-ProjektController" style="stroke:#A80036;stroke-width:1.0;stroke-dasharray:7.0,7.0;"/><!--MD5=[bdb2fb9659c40ca20c8a0ef8b3419b14]
link ProjektComponent to JSX.Element--><path codeLine="118" d="M1953.42,159.591 C1894.15,183.669 1811.7,213.477 1736,228 C1716.12,231.814 1570.81,224.719 1554,236 C1519.98,258.834 1505.89,307.444 1500.34,336.403 " fill="none" id="ProjektComponent-JSX.Element" style="stroke:#A80036;stroke-width:1.0;stroke-dasharray:7.0,7.0;"/><!--MD5=[40aba5d83426c147d950599fd7818350]
link AnwendungsprofileComponent to ReactComponent--><path codeLine="119" d="M2472.3,173.779 C2382.34,194.855 2273.4,216.991 2174,228 C2153.76,230.242 1459,226.476 1441,236 C1408.26,253.326 1385.4,289.342 1371.53,318.031 " fill="none" id="AnwendungsprofileComponent-to-ReactComponent" style="stroke:#A80036;stroke-width:1.0;"/><polygon fill="none" points="1377.88,320.981,1363.35,336.403,1365.09,315.285,1377.88,320.981" style="stroke:#A80036;stroke-width:1.0;"/><!--MD5=[07a93b04ff5acceb23f3aee3cb750a2c]
link AnwendungsprofileComponent to GenericComponent--><path codeLine="120" d="M2472.26,173.424 C2382.29,194.426 2273.36,216.602 2174,228 C2150.43,230.704 1768.34,225.637 1747,236 C1705.73,256.039 1675.58,301.849 1659.44,331.691 " fill="none" id="AnwendungsprofileComponent-to-GenericComponent" style="stroke:#A80036;stroke-width:1.0;stroke-dasharray:7.0,7.0;"/><polygon fill="#A80036" points="1656.97,336.338,1664.7271,330.2694,1659.3174,331.9233,1657.6635,326.5136,1656.97,336.338" style="stroke:#A80036;stroke-width:1.0;"/><!--MD5=[8d1827e45f9fbd546a0e35d0be9448b8]
link AnwendungsprofileComponent to AnwendungsprofileController--><path codeLine="122" d="M2857.72,183.835 C2910.12,200.489 2966.81,218.732 3019,236 C3105.67,264.674 3203.64,298.47 3275.31,323.453 " fill="none" id="AnwendungsprofileComponent-AnwendungsprofileController" style="stroke:#A80036;stroke-width:1.0;stroke-dasharray:7.0,7.0;"/><!--MD5=[c3fa3a581149e4e71330fe6d8bf5e293]
link AnwendungsprofileComponent to Subscription--><path codeLine="123" d="M2472.24,173.277 C2382.27,194.248 2273.34,216.441 2174,228 C2153.91,230.338 1826.19,223.876 1810,236 C1724.15,300.281 1823.2,402.188 1737,466 C1720.86,477.95 1031.33,463.846 1014,474 C976.872,495.757 957.415,544.992 948.759,574.301 " fill="none" id="AnwendungsprofileComponent-Subscription" style="stroke:#A80036;stroke-width:1.0;stroke-dasharray:7.0,7.0;"/><!--MD5=[d030716be6948cee59c236c25012153c]
link AnwendungsprofileComponent to ExtendedProjectFeature--><path codeLine="124" d="M2857.59,130.456 C3145.08,142.848 3658.86,173.526 3715,236 C3783.32,312.035 3772.67,381.597 3715,466 C3659.73,546.895 3546.68,578.03 3466.79,590.011 " fill="none" id="AnwendungsprofileComponent-ExtendedProjectFeature" style="stroke:#A80036;stroke-width:1.0;stroke-dasharray:7.0,7.0;"/><!--MD5=[bb5033f33fe42396e60580c1ce5789d5]
link AnwendungsprofileComponent to JSX.Element--><path codeLine="125" d="M2472.29,173.689 C2382.33,194.746 2273.39,216.892 2174,228 C2156.88,229.913 1568.45,226.624 1554,236 C1519.53,258.368 1505.59,307.383 1500.19,336.489 " fill="none" id="AnwendungsprofileComponent-JSX.Element" style="stroke:#A80036;stroke-width:1.0;stroke-dasharray:7.0,7.0;"/><!--MD5=[5d67c34475846afe0aa4ab82e6d6ab12]
link ExtendedProjectFeature to ProjectFeature--><path codeLine="126" d="M3344.5,629.109 C3313.54,656.471 3267.44,697.2098 3234.23,726.5595 " fill="none" id="ExtendedProjectFeature-to-ProjectFeature" style="stroke:#A80036;stroke-width:1.0;"/><polygon fill="none" points="3238.71,731.9448,3219.09,739.9442,3229.44,721.4545,3238.71,731.9448" style="stroke:#A80036;stroke-width:1.0;"/><!--MD5=[237edd2f038743c1aa8d922c7b0f96bf]
link AnwendungsprofileController to AbstractController--><path codeLine="127" d="M3281.33,397.53 C3209.98,422.172 3109.88,452.696 3019,466 C2989.51,470.317 1972.48,460.318 1946,474 C1912.71,491.2 1889,527.229 1874.46,555.956 " fill="none" id="AnwendungsprofileController-to-AbstractController" style="stroke:#A80036;stroke-width:1.0;"/><polygon fill="none" points="1880.67,559.201,1865.86,574.355,1867.99,553.273,1880.67,559.201" style="stroke:#A80036;stroke-width:1.0;"/><!--MD5=[2a2bca502dcc3a939ae455aeeee19c9c]
link AnwendungsprofileController to ProjekthandbuchService--><path codeLine="128" d="M3280.15,397.599 C3208.85,422.017 3109.32,452.234 3019,466 C2927.59,479.931 2694.67,461.929 2603,474 C2480.56,490.122 2344.69,524.898 2245.69,553.452 " fill="none" id="AnwendungsprofileController-ProjekthandbuchService" style="stroke:#A80036;stroke-width:1.0;stroke-dasharray:7.0,7.0;"/><!--MD5=[4919e042b2cfb7bbf4d4d1dee7014f62]
link AnwendungsprofileController to ExtendedProjectFeature--><path codeLine="129" d="M3378,397.6 C3378,444.213 3378,524.472 3378,567.758 " fill="none" id="AnwendungsprofileController-ExtendedProjectFeature" style="stroke:#A80036;stroke-width:1.0;stroke-dasharray:7.0,7.0;"/><!--MD5=[61eaa6955adb224b549b13ec30ba959a]
link ProjekthandbuchService to BehaviorSubject--><path codeLine="130" d="M2066.45,680.292 C2056.27,702.1752 2046.06,724.1499 2038.72,739.9428 " fill="none" id="ProjekthandbuchService-BehaviorSubject" style="stroke:#A80036;stroke-width:1.0;stroke-dasharray:7.0,7.0;"/><!--MD5=[76730f526dd25cc0f0ed0a3982ebe624]
link ProjekthandbuchService to Observable--><path codeLine="131" d="M2141.55,680.292 C2151.73,702.1752 2161.94,724.1499 2169.28,739.9428 " fill="none" id="ProjekthandbuchService-Observable" style="stroke:#A80036;stroke-width:1.0;stroke-dasharray:7.0,7.0;"/><!--MD5=[ee2e084a88b84476eabb0c98f1c0529c]
link ProjektController to AbstractController--><path codeLine="132" d="M2523.1,403.548 C2414.63,426.048 2275.28,451.95 2150,466 C2127.46,468.528 1965.99,463.269 1946,474 C1913.08,491.675 1889.38,527.493 1874.75,556.024 " fill="none" id="ProjektController-to-AbstractController" style="stroke:#A80036;stroke-width:1.0;"/><polygon fill="none" points="1880.98,559.236,1866.07,574.3,1868.33,553.231,1880.98,559.236" style="stroke:#A80036;stroke-width:1.0;"/><!--MD5=[16d27d103b1ceb0bd3daee39df8a0354]
link ProjektController to ContainsProductFeatures--><path codeLine="133" d="M2711,403.692 C2711,453.543 2711,534.697 2711,574.293 " fill="none" id="ProjektController-ContainsProductFeatures" style="stroke:#A80036;stroke-width:1.0;stroke-dasharray:7.0,7.0;"/><!--MD5=[f4f659793e204c7b5542eab210f0291f]
link ProjektController to ProjekthandbuchService--><path codeLine="134" d="M2602.83,403.556 C2503.22,442.285 2354.8,499.99 2245.74,542.39 " fill="none" id="ProjektController-ProjekthandbuchService" style="stroke:#A80036;stroke-width:1.0;stroke-dasharray:7.0,7.0;"/><!--MD5=[2eac5736b25fecd979fa2733f2c46d96]
link ProjektController to ProjectFeature--><path codeLine="135" d="M2751.45,403.688 C2838.08,493.984 3034.42,698.2808 3043,704 C3070.48,722.3126 3104.49,736.2786 3133.18,746.0143 " fill="none" id="ProjektController-ProjectFeature" style="stroke:#A80036;stroke-width:1.0;stroke-dasharray:7.0,7.0;"/><!--MD5=[dd095fd1d7e64a802ce5d0812dba5ed0]
link MetaModellComponent to ReactComponent--><path codeLine="136" d="M1523.63,159.693 C1497.79,180.578 1466.06,208.159 1441,236 C1417.77,261.814 1395.47,294.119 1379.41,319.214 " fill="none" id="MetaModellComponent-to-ReactComponent" style="stroke:#A80036;stroke-width:1.0;"/><polygon fill="none" points="1385.2,323.153,1368.66,336.393,1373.33,315.726,1385.2,323.153" style="stroke:#A80036;stroke-width:1.0;"/><!--MD5=[986880f9af4d3efc17ccf4213c72c077]
link MetaModellComponent to GenericComponent--><path codeLine="137" d="M1582.47,159.6 C1597.49,206.846 1623.49,288.656 1637.1,331.499 " fill="none" id="MetaModellComponent-to-GenericComponent" style="stroke:#A80036;stroke-width:1.0;stroke-dasharray:7.0,7.0;"/><polygon fill="#A80036" points="1638.62,336.275,1639.7017,326.4857,1637.1034,331.5106,1632.0786,328.9123,1638.62,336.275" style="stroke:#A80036;stroke-width:1.0;"/><!--MD5=[515e1aa93a7bdaabe0f0f985b2017ce1]
link MetaModellComponent to MetaModellController--><path codeLine="139" d="M1633.56,159.6 C1710.54,204.018 1840.47,278.988 1917.44,323.404 " fill="none" id="MetaModellComponent-MetaModellController" style="stroke:#A80036;stroke-width:1.0;stroke-dasharray:7.0,7.0;"/><!--MD5=[7eca51299f77c0dc8a5dc49b50e784ba]
link MetaModellComponent to JSX.Element--><path codeLine="140" d="M1559.68,159.6 C1544.3,208.667 1517.22,295.013 1504.28,336.275 " fill="none" id="MetaModellComponent-JSX.Element" style="stroke:#A80036;stroke-width:1.0;stroke-dasharray:7.0,7.0;"/><!--MD5=[49180455c49e23bec36c85c726ad2710]
link MetaModellController to AbstractController--><path codeLine="141" d="M1961.19,397.6 C1938.91,440.342 1901.89,511.372 1878.5,556.247 " fill="none" id="MetaModellController-to-AbstractController" style="stroke:#A80036;stroke-width:1.0;"/><polygon fill="none" points="1884.56,559.774,1869.1,574.275,1872.14,553.304,1884.56,559.774" style="stroke:#A80036;stroke-width:1.0;"/><!--MD5=[b3e9df0eb755feb614dbe94c93760756]
link MetaModellController to ProjekthandbuchService--><path codeLine="142" d="M1998.97,397.6 C2015.59,429.235 2040.35,476.367 2061.66,516.921 " fill="none" id="MetaModellController-ProjekthandbuchService" style="stroke:#A80036;stroke-width:1.0;stroke-dasharray:7.0,7.0;"/><!--MD5=[d27c8bd82b5ecdfb3ee26f206e1e3232]
link ProjekttypComponent to ReactComponent--><path codeLine="143" d="M575.468,147.887 C683.54,172.946 860.8,210.669 1016,228 C1043.95,231.121 1244.28,222.589 1269,236 C1301.47,253.614 1324.3,289.438 1338.24,317.987 " fill="none" id="ProjekttypComponent-to-ReactComponent" style="stroke:#A80036;stroke-width:1.0;"/><polygon fill="none" points="1344.65,315.166,1346.48,336.277,1331.88,320.916,1344.65,315.166" style="stroke:#A80036;stroke-width:1.0;"/><!--MD5=[99305fa704b8d21eb0313999b24a46e3]
link ProjekttypComponent to GenericComponent--><path codeLine="144" d="M575.413,148.398 C683.439,173.886 860.661,211.966 1016,228 C1045.68,231.063 1526.4,222.484 1553,236 C1592.63,256.139 1619.91,301.92 1634.23,331.729 " fill="none" id="ProjekttypComponent-to-GenericComponent" style="stroke:#A80036;stroke-width:1.0;stroke-dasharray:7.0,7.0;"/><polygon fill="#A80036" points="1636.42,336.37,1636.1945,326.5237,1634.2852,331.8486,1628.9603,329.9394,1636.42,336.37" style="stroke:#A80036;stroke-width:1.0;"/><!--MD5=[af18cb3b7f5c77748f0814a6835df4e2]
link ProjekttypComponent to ProjekttypController--><path codeLine="146" d="M462.641,178.534 C455.942,208.362 447.538,245.782 440.114,278.842 " fill="none" id="ProjekttypComponent-ProjekttypController" style="stroke:#A80036;stroke-width:1.0;stroke-dasharray:7.0,7.0;"/><!--MD5=[996506055966ff99fc64731ca0c2c82f]
link ProjekttypComponent to JSX.Element--><path codeLine="147" d="M575.426,148.275 C683.463,173.66 860.693,211.654 1016,228 C1039.38,230.46 1419.28,223.211 1439,236 C1473.48,258.362 1487.87,307.139 1493.56,336.256 " fill="none" id="ProjekttypComponent-JSX.Element" style="stroke:#A80036;stroke-width:1.0;stroke-dasharray:7.0,7.0;"/><!--MD5=[1b4edf168635fc2131ebe462fea52f50]
link ProjekttypController to AbstractController--><path codeLine="148" d="M608.871,426.324 C663.086,442.355 722.825,457.393 779,466 C869.956,479.937 1101.46,464.666 1193,474 C1400.12,495.118 1639.36,546.353 1766.52,575.768 " fill="none" id="ProjekttypController-to-AbstractController" style="stroke:#A80036;stroke-width:1.0;"/><polygon fill="none" points="1768.43,569.025,1786.32,580.382,1765.25,582.66,1768.43,569.025" style="stroke:#A80036;stroke-width:1.0;"/><!--MD5=[a22758060d9199a69d87b0d80722c9e3]
link ProjekttypController to ProjekthandbuchService--><path codeLine="149" d="M608.803,426.777 C663.017,442.814 722.773,457.743 779,466 C811.046,470.706 1914.4,463.393 1945,474 C1972.08,483.386 1998.13,499.43 2021.02,516.904 " fill="none" id="ProjekttypController-ProjekthandbuchService" style="stroke:#A80036;stroke-width:1.0;stroke-dasharray:7.0,7.0;"/><!--MD5=[ef10ee512321e41f389b90120195b8a1]
link ProjekttypController to ProjectType--><path codeLine="150" d="M422,442.058 C422,488.66 422,543.954 422,574.437 " fill="none" id="ProjekttypController-ProjectType" style="stroke:#A80036;stroke-width:1.0;stroke-dasharray:7.0,7.0;"/><!--MD5=[1941ddd6a4fc7d9186a6abec0826ab30]
link ProjekttypController to Subscription--><path codeLine="151" d="M599.841,442.058 C702.721,488.66 824.79,543.954 892.086,574.437 " fill="none" id="ProjekttypController-Subscription" style="stroke:#A80036;stroke-width:1.0;stroke-dasharray:7.0,7.0;"/><!--MD5=[2755a8e1138a62e74d96ea17698826b2]
link ProjekttypvarianteComponent to ReactComponent--><path codeLine="152" d="M1208.56,178.742 C1229.08,196.063 1250.79,215.926 1269,236 C1292.33,261.726 1314.62,294.035 1330.66,319.153 " fill="none" id="ProjekttypvarianteComponent-to-ReactComponent" style="stroke:#A80036;stroke-width:1.0;"/><polygon fill="none" points="1336.74,315.678,1341.39,336.352,1324.86,323.088,1336.74,315.678" style="stroke:#A80036;stroke-width:1.0;"/><!--MD5=[5f6377e9727325462f1c0dbdcba3a57f]
link ProjekttypvarianteComponent to GenericComponent--><path codeLine="153" d="M1241.62,173.035 C1290.46,193.82 1350.05,215.93 1406,228 C1437.98,234.898 1524.13,220.607 1553,236 C1592.12,256.858 1619.47,302.208 1633.96,331.766 " fill="none" id="ProjekttypvarianteComponent-to-GenericComponent" style="stroke:#A80036;stroke-width:1.0;stroke-dasharray:7.0,7.0;"/><polygon fill="#A80036" points="1636.17,336.368,1635.8663,326.5238,1633.9994,331.8637,1628.6595,329.9968,1636.17,336.368" style="stroke:#A80036;stroke-width:1.0;"/><!--MD5=[c589c0a27848cf4b4ee999ab22394207]
link ProjekttypvarianteComponent to ProjekttypvarianteController--><path codeLine="155" d="M1110.65,178.534 C1096.37,208.362 1078.45,245.782 1062.62,278.842 " fill="none" id="ProjekttypvarianteComponent-ProjekttypvarianteController" style="stroke:#A80036;stroke-width:1.0;stroke-dasharray:7.0,7.0;"/><!--MD5=[bdefe3e6a22c191547b90657fbeaf5ea]
link ProjekttypvarianteComponent to JSX.Element--><path codeLine="156" d="M1241.57,167.847 C1290.9,187.803 1350.91,210.705 1406,228 C1420.4,232.52 1427.31,226.455 1439,236 C1470.37,261.62 1485.71,308.117 1492.44,336.169 " fill="none" id="ProjekttypvarianteComponent-JSX.Element" style="stroke:#A80036;stroke-width:1.0;stroke-dasharray:7.0,7.0;"/><!--MD5=[7ae65426589457dad00c4584ae55d911]
link ProjekttypvarianteController to AbstractController--><path codeLine="157" d="M1203.28,442.068 C1225.53,450.752 1248.13,458.97 1270,466 C1442.11,521.329 1649.86,561.959 1766.36,582.47 " fill="none" id="ProjekttypvarianteController-to-AbstractController" style="stroke:#A80036;stroke-width:1.0;"/><polygon fill="none" points="1767.82,575.62,1786.33,585.945,1765.42,589.412,1767.82,575.62" style="stroke:#A80036;stroke-width:1.0;"/><!--MD5=[366b9fcd12b13e9318cc8f1fad0b1c88]
link ProjekttypvarianteController to ProjekthandbuchService--><path codeLine="158" d="M1189.56,442.047 C1215.93,451.872 1243.32,460.403 1270,466 C1306.7,473.699 1909.6,461.631 1945,474 C1972.06,483.453 1998.09,499.522 2020.99,516.997 " fill="none" id="ProjekttypvarianteController-ProjekthandbuchService" style="stroke:#A80036;stroke-width:1.0;stroke-dasharray:7.0,7.0;"/><!--MD5=[f919960d0ccce437fa845ea83c8c05d3]
link ProjekttypvarianteController to ProjectTypeVariant--><path codeLine="159" d="M1051.31,442.058 C1067.1,488.66 1085.85,543.954 1096.18,574.437 " fill="none" id="ProjekttypvarianteController-ProjectTypeVariant" style="stroke:#A80036;stroke-width:1.0;stroke-dasharray:7.0,7.0;"/><!--MD5=[56d39236a7bc5515e902e8926ca0e807]
link ProjekttypvarianteController to Subscription--><path codeLine="160" d="M996.351,442.058 C980.356,488.66 961.378,543.954 950.916,574.437 " fill="none" id="ProjekttypvarianteController-Subscription" style="stroke:#A80036;stroke-width:1.0;stroke-dasharray:7.0,7.0;"/><!--MD5=[9dd4e36d67f449273053cbdafad35908]
@startuml
package demo/proj/components/projekthandbuch/projekt/component.tsx {
class ProjektComponent {
+ctrl: ProjektController: ProjektController
+render(): JSX.Element
}
}

package proj/components/projekthandbuch/projekt/anwendungsprofile/component.tsx {
class AnwendungsprofileComponent {
+ctrl: AnwendungsprofileController: AnwendungsprofileController
-projectTypeSubscription: Subscription: Subscription
-projectTypeVariantSubscription: Subscription: Subscription
-projectFeatures: Array<ExtendedProjectFeature>
-projectTypeId
-projectTypeVariantId
+componentDidMount(): void
+componentWillUnmount(): void
+render(): JSX.Element
}
}

package proj/components/projekthandbuch/projekt/anwendungsprofile/controller.ts {
interface ExtendedProjectFeature {
values: 
}
class AnwendungsprofileController {
+projekthandbuchService: ProjekthandbuchService
+getProjectFeatures(projectTypeId: number, projectTypeVariantId: number): Array<ExtendedProjectFeature>
}
}

package proj/services/projekthandbuch/service.ts {
class ProjekthandbuchService {
+metaModelId: BehaviorSubject
+projectTypeId: BehaviorSubject
+projectTypeVariantId: BehaviorSubject
+getMetaModelId(): Observable
+setMetaModelId(value: number): void
+getProjectTypeId(): Observable
+setProjectTypeId(value: number): void
+getProjectTypeVariantId(): Observable
+setProjectTypeVariantId(value: number): void
}
}
package proj/components/projekthandbuch/projekt/controller.ts {
class ProjektController {
+projectFeatures: Array<ContainsProductFeatures>
+projekthandbuchService: ProjekthandbuchService
+getProjectFeatures(projectTypeId: number, projectTypeVariantId: number): Array<ProjectFeature>
}
}
package proj/components/projekthandbuch/projekt/meta-modell/component.tsx {
class MetaModellComponent {
+ctrl: MetaModellController: MetaModellController
+render(): JSX.Element
}
}

package proj/components/projekthandbuch/projekt/meta-modell/controller.ts {

class MetaModellController {
+projekthandbuchService: ProjekthandbuchService
+changeMetaModel(mataModelId: number): void
}
}
package proj/components/projekthandbuch/projekt/projekttyp/component.tsx {
class ProjekttypComponent {
+ctrl: ProjekttypController
+constructor(props: unknown)
+componentDidMount(): void
+componentWillUnmount(): void
+render(): JSX.Element
}
}

package proj/components/projekthandbuch/projekt/projekttyp/controller.ts {

class ProjekttypController {
+projekthandbuchService: ProjekthandbuchService
-render: Function
+projectTypes: Array<ProjectType>
+metaModelSubscription: Subscription: Subscription
+constructor(render: Function)
+onInit(): void
+onDestroy(): void
+getProjectTypes(metaModelId: number): Array<ProjectType>
+changeProjectType(projectTypeId: number): void
}
}
package proj/components/projekthandbuch/projekt/projekttypvariante/component.tsx {
class ProjekttypvarianteComponent {
+ctrl: ProjekttypvarianteController
+constructor(props: unknown)
+componentDidMount(): void
+componentWillUnmount(): void
+render(): JSX.Element
}
}

package proj/components/projekthandbuch/projekt/projekttypvariante/controller.ts {

class ProjekttypvarianteController {
+projekthandbuchService: ProjekthandbuchService
-render: Function
+projectTypeVariants: Array<ProjectTypeVariant>
+projectTypeSubscription: Subscription: Subscription
+constructor(render: Function)
+onInit(): void
+onDestroy(): void
+getProjectTypeVariants(projectTypeId: number): Array<ProjectTypeVariant>
+changeProjectTypeVariant(projectTypeVariantId: number): void
}
}
ProjektComponent - -|> ReactComponent
ProjektComponent ..> GenericComponent
interface GenericComponent {}
ProjektComponent .. ProjektController
ProjektComponent .. JSX.Element
AnwendungsprofileComponent - -|> ReactComponent
AnwendungsprofileComponent ..> GenericComponent
interface GenericComponent {}
AnwendungsprofileComponent .. AnwendungsprofileController
AnwendungsprofileComponent .. Subscription
AnwendungsprofileComponent .. ExtendedProjectFeature
AnwendungsprofileComponent .. JSX.Element
ExtendedProjectFeature - -|> ProjectFeature
AnwendungsprofileController - -|> AbstractController
AnwendungsprofileController .. ProjekthandbuchService
AnwendungsprofileController .. ExtendedProjectFeature
ProjekthandbuchService .. BehaviorSubject
ProjekthandbuchService .. Observable
ProjektController - -|> AbstractController
ProjektController .. ContainsProductFeatures
ProjektController .. ProjekthandbuchService
ProjektController .. ProjectFeature
MetaModellComponent - -|> ReactComponent
MetaModellComponent ..> GenericComponent
interface GenericComponent {}
MetaModellComponent .. MetaModellController
MetaModellComponent .. JSX.Element
MetaModellController - -|> AbstractController
MetaModellController .. ProjekthandbuchService
ProjekttypComponent - -|> ReactComponent
ProjekttypComponent ..> GenericComponent
interface GenericComponent {}
ProjekttypComponent .. ProjekttypController
ProjekttypComponent .. JSX.Element
ProjekttypController - -|> AbstractController
ProjekttypController .. ProjekthandbuchService
ProjekttypController .. ProjectType
ProjekttypController .. Subscription
ProjekttypvarianteComponent - -|> ReactComponent
ProjekttypvarianteComponent ..> GenericComponent
interface GenericComponent {}
ProjekttypvarianteComponent .. ProjekttypvarianteController
ProjekttypvarianteComponent .. JSX.Element
ProjekttypvarianteController - -|> AbstractController
ProjekttypvarianteController .. ProjekthandbuchService
ProjekttypvarianteController .. ProjectTypeVariant
ProjekttypvarianteController .. Subscription
@enduml

PlantUML version 1.2021.2beta14(Unknown compile time)
(GPL source distribution)
Java Runtime: Java(TM) SE Runtime Environment
JVM: Java HotSpot(TM) 64-Bit Server VM
Default Encoding: UTF-8
Language: en
Country: US
--></g></svg>